<svg xmlns="http://www.w3.org/2000/svg" xmlns:xlink="http://www.w3.org/1999/xlink" width="1000" zoomAndPan="magnify" viewBox="0 0 750 749.999995" height="1000" preserveAspectRatio="xMidYMid meet" version="1.0"><defs><clipPath id="6592b814e4"><path d="M 565 597 L 735.730469 597 L 735.730469 750 L 565 750 Z M 565 597 " clip-rule="nonzero"/></clipPath></defs><path fill="#4b7b07" d="M 180.988281 805.914062 C 180.945312 805.890625 180.910156 805.871094 180.910156 805.871094 C 180.933594 805.890625 180.964844 805.902344 180.988281 805.914062 Z M 181.585938 829.515625 C 175.515625 826.660156 165.398438 814.878906 165.398438 814.878906 C 180.769531 824.960938 214.945312 814.816406 214.945312 814.816406 C 196.726562 813.785156 184.050781 807.546875 181.425781 806.152344 C 191.492188 810.9375 238.96875 793.988281 238.96875 793.988281 C 223.730469 793.988281 207.714844 792.746094 202.894531 788.859375 C 216.535156 786.136719 222.878906 776.117188 222.878906 776.117188 C 184.464844 779.535156 152.503906 776.734375 131.976562 763.523438 C 110.046875 749.40625 105.304688 731.109375 105.304688 731.109375 C 119.996094 755.691406 143.097656 758.625 155.433594 759.167969 C 145.144531 751.480469 143.089844 735.660156 143.089844 735.660156 C 164.589844 752.03125 181.136719 743.375 181.136719 743.375 C 169.433594 743.71875 161.320312 731.855469 161.320312 731.855469 C 184.210938 740.6875 205.503906 734.1875 205.503906 734.1875 C 189.609375 730.972656 178.535156 719.910156 178.535156 719.910156 C 202.941406 718.816406 219.160156 707.265625 219.160156 707.265625 C 212.128906 711.160156 166.488281 711.574219 145.351562 707.246094 C 119.539062 701.964844 102.207031 678.554688 101.652344 676.9375 C 115.179688 688.285156 130.265625 689.527344 132.597656 689.058594 C 122.101562 684.855469 120.042969 677.460938 118.449219 674.289062 C 130.636719 682.226562 154.835938 682.140625 154.835938 682.140625 C 145.507812 679.03125 131.453125 664.339844 131.453125 664.339844 C 145.605469 669.621094 152.757812 663.25 152.757812 663.25 C 144.046875 662.160156 140.003906 655.632812 140.003906 655.632812 C 158.042969 656.878906 167.6875 646.304688 167.6875 646.304688 C 123.828125 652.058594 105.324219 635.269531 105.324219 635.269531 C 140.003906 637.910156 151.511719 620.34375 151.511719 620.34375 C 101.546875 621.664062 97.066406 600.292969 94.011719 596.71875 C 109.199219 608.457031 112.632812 600.292969 112.632812 600.292969 C 108.28125 598.890625 106.261719 589.410156 106.261719 589.410156 C 123.359375 603.402344 135.34375 598.273438 135.34375 598.273438 C 129.121094 598.429688 124.761719 587.082031 124.761719 587.082031 C 142.335938 594.851562 159.914062 581.011719 159.914062 581.011719 C 153.070312 583.191406 129.582031 575.109375 129.582031 575.109375 C 134.5625 574.640625 138.507812 567.03125 138.507812 567.03125 C 117.667969 571.070312 104.859375 562.824219 104.859375 562.824219 C 120.878906 564.222656 131.664062 549.621094 131.664062 549.621094 C 95.898438 549.929688 88.792969 531.953125 88.792969 531.953125 C 102.230469 543.613281 121.089844 537.492188 121.089844 537.492188 C 114.867188 535.007812 95.679688 521.011719 95.679688 521.011719 C 111.019531 525.5625 112.652344 521.597656 116.382812 518.917969 C 109.390625 520.003906 97.078125 507.484375 97.078125 507.484375 C 108.335938 514.179688 127.621094 501.121094 127.621094 501.121094 C 107.484375 501.691406 94.535156 484.109375 87.527344 470.449219 C 90.296875 471.953125 93.671875 473.359375 97.140625 473.757812 C 89.90625 465.40625 83.960938 457.9375 82.328125 443.601562 C 82.328125 443.601562 76.808594 464.664062 67.164062 471.8125 C 67.164062 471.8125 70.917969 476.164062 78.984375 468.0625 C 70.3125 491.664062 37.824219 502.976562 37.824219 502.976562 C 45.136719 509.972656 63.644531 506.402344 63.644531 506.402344 C 61.3125 515.882812 40.316406 524.433594 40.316406 524.433594 C 47.816406 528.765625 63.664062 526.027344 71.734375 521.925781 C 71.5 522.863281 71.632812 524.078125 70.957031 525.054688 C 62.730469 536.871094 29.429688 534.070312 29.429688 534.070312 C 29.742188 539.351562 49.960938 545.730469 49.960938 545.730469 C 49.339844 550.390625 32.929688 553.652344 32.929688 553.652344 C 40.316406 562.203125 59.914062 558.632812 59.914062 558.632812 C 56.492188 571.84375 -1.832031 568.269531 -1.832031 568.269531 C 5.640625 576.042969 30.363281 577.59375 30.363281 577.59375 C 29.742188 584.433594 16.675781 591.433594 16.675781 591.433594 C 28.808594 596.714844 46.378906 582.101562 46.378906 582.101562 C 49.492188 586.453125 34.875 595.78125 34.875 595.78125 C 42.957031 600.914062 70.328125 583.8125 70.328125 583.8125 C 62.246094 602.933594 10.613281 610.863281 10.613281 610.863281 C 33.785156 627.03125 65.976562 610.863281 65.976562 610.863281 C 57.734375 631.230469 -5.871094 636.042969 -5.871094 636.042969 C 1.28125 648.792969 17.613281 645.0625 17.613281 645.0625 C 19.070312 649.265625 6.101562 659.210938 6.101562 659.210938 C 13.414062 660.140625 27.5625 652.679688 27.5625 652.679688 C 28.5 655.789062 23.988281 665.113281 23.988281 665.113281 C 27.71875 664.960938 39.371094 652.730469 39.371094 652.730469 C 39.371094 652.730469 41.078125 657.890625 37.199219 665.476562 C 49.027344 662.003906 61.464844 648.324219 61.464844 648.324219 C 60.824219 657.039062 39.207031 673.4375 39.207031 673.4375 C 57.324219 670.328125 71.730469 660.457031 71.730469 660.457031 C 64.960938 667.25 53.996094 675.574219 36.820312 682.472656 C 1.128906 696.824219 -43.503906 673.796875 -43.503906 673.796875 C -43.503906 673.796875 -28.128906 703.214844 -7.207031 701.265625 C -7.207031 701.265625 -29.246094 715.609375 -38.265625 711.679688 C -38.265625 711.679688 -12.667969 726.5 10.5625 710.582031 C 10.5625 710.582031 13.199219 726.226562 -5.703125 732.605469 C -5.703125 732.605469 20.644531 742.617188 44.113281 718.1875 C 44.113281 718.1875 43.066406 731.046875 27.335938 736.511719 C 27.335938 736.511719 48.910156 735.890625 61.855469 720.453125 C 61.855469 720.453125 62.148438 724.117188 56.316406 731.578125 C 46.136719 744.597656 12.574219 783.273438 -38.710938 779.394531 C -37.945312 783.867188 -27.417969 793.902344 -15.386719 795.253906 C -15.386719 795.253906 -26.113281 802.714844 -33.117188 802.246094 C -33.117188 802.246094 -17.191406 814.554688 4.277344 810.824219 C 4.367188 810.015625 -1.929688 820.996094 -16.695312 825.382812 C -16.695312 825.382812 25.691406 826.5 36.894531 815.773438 C 36.894531 815.773438 31.804688 830.128906 22.007812 834.789062 C 22.007812 834.789062 73.179688 833.808594 97.183594 811.117188 C 142.292969 829.28125 149.976562 829.976562 181.585938 829.515625 " fill-opacity="1" fill-rule="nonzero"/><g clip-path="url(#6592b814e4)"><path fill="#4b7b07" d="M 571.191406 810.734375 C 622.03125 800.128906 624.265625 787.375 624.265625 787.375 C 588.695312 790.085938 575.453125 776.535156 575.453125 776.535156 C 636.546875 778.605469 641.007812 747.308594 641.007812 747.308594 C 625.855469 767.238281 614.210938 760.542969 614.210938 760.542969 C 618.679688 759.105469 620.746094 749.382812 620.746094 749.382812 C 603.203125 763.730469 590.921875 758.46875 590.921875 758.46875 C 597.304688 758.625 601.765625 746.992188 601.765625 746.992188 C 583.746094 754.960938 565.71875 740.773438 565.71875 740.773438 C 572.738281 743.003906 596.820312 734.710938 596.820312 734.710938 C 591.71875 734.234375 591.082031 724.347656 591.082031 724.347656 C 612.457031 728.492188 627.535156 716.507812 627.535156 716.507812 C 611.105469 717.945312 597.625 703.351562 597.625 703.351562 C 634.3125 703.675781 640.683594 687.042969 640.683594 687.042969 C 633.507812 694.054688 617.40625 689.800781 617.40625 689.800781 C 623.785156 687.25 631.597656 679.230469 631.597656 679.230469 C 620.90625 686.5625 609.746094 675.773438 609.746094 675.773438 C 616.925781 676.886719 630.160156 665.363281 630.160156 665.363281 C 620.558594 669.125 609.589844 660.785156 609.589844 660.785156 C 625.332031 655.089844 634.378906 644.617188 639.589844 634.765625 C 638.105469 635.605469 636.769531 636.324219 636.027344 636.632812 C 633.15625 637.828125 629.210938 637.828125 629.210938 637.828125 C 639.894531 626.347656 645.792969 597.652344 645.792969 597.652344 C 645.203125 610.578125 658.394531 631.691406 662.382812 634.636719 C 659.230469 634.515625 655.246094 633.371094 652.128906 632.289062 C 663.625 651.191406 688.878906 659.945312 688.878906 659.945312 C 681.378906 667.128906 664.453125 664.242188 664.453125 664.242188 C 666.84375 673.96875 688.378906 682.734375 688.378906 682.734375 C 680.683594 687.183594 663.941406 682.667969 656.15625 680.167969 C 656.390625 681.136719 656.660156 682.195312 656.953125 683.375 C 659.984375 695.492188 699.542969 692.625 699.542969 692.625 C 699.21875 698.039062 678.484375 704.582031 678.484375 704.582031 C 679.125 709.367188 695.953125 712.710938 695.953125 712.710938 C 688.378906 721.480469 668.28125 717.8125 668.28125 717.8125 C 671.789062 731.363281 731.601562 727.695312 731.601562 727.695312 C 723.945312 735.667969 698.582031 737.261719 698.582031 737.261719 C 699.21875 744.277344 712.621094 751.453125 712.621094 751.453125 C 700.183594 756.875 682.15625 741.886719 682.15625 741.886719 C 678.964844 746.351562 693.960938 755.917969 693.960938 755.917969 C 685.664062 761.175781 657.589844 743.644531 657.589844 743.644531 C 665.890625 763.25 718.84375 771.382812 718.84375 771.382812 C 695.074219 787.964844 662.058594 771.382812 662.058594 771.382812 C 670.511719 792.265625 735.746094 797.207031 735.746094 797.207031 C 728.410156 810.285156 711.664062 806.457031 711.664062 806.457031 C 710.867188 811.878906 723.46875 820.964844 723.46875 820.964844 C 715.96875 821.917969 701.453125 814.269531 701.453125 814.269531 C 700.5 817.460938 705.125 827.023438 705.125 827.023438 C 701.296875 826.867188 689.332031 814.269531 689.332031 814.269531 L 691.566406 827.339844 C 679.441406 823.835938 666.6875 809.804688 666.6875 809.804688 C 665.726562 819.054688 683.59375 837.222656 683.59375 837.222656 C 666.046875 834.359375 656.160156 820.964844 656.160156 820.964844 L 656.160156 834.035156 L 649.617188 834.199219 L 650.238281 810.742188 C 649.039062 815.707031 647.9375 820.125 645.789062 823.039062 C 638.195312 833.339844 615.328125 831.699219 615.328125 831.699219 C 626.976562 829.945312 630.402344 815.039062 630.402344 815.039062 C 617.328125 825.402344 607.914062 825.558594 607.914062 825.558594 C 611.5 821.730469 609.230469 819.101562 609.230469 819.101562 C 597.625 827.835938 588.300781 825.320312 588.300781 825.320312 C 597.230469 822.011719 599.621094 820.019531 601.375 817.507812 C 582.875 818.785156 571.191406 810.734375 571.191406 810.734375 " fill-opacity="1" fill-rule="nonzero"/></g><path fill="#385c05" d="M 435.371094 648.75 C 417.398438 660.316406 389.421875 662.765625 355.796875 659.769531 C 355.796875 659.769531 361.347656 668.546875 373.292969 670.929688 C 369.066406 674.332031 355.046875 675.421875 341.703125 675.421875 C 341.703125 675.421875 384.792969 690.800781 392.53125 685.828125 C 392.53125 685.828125 380.707031 692.636719 362.738281 693.660156 C 362.738281 693.660156 392.660156 702.539062 406.113281 693.707031 C 406.113281 693.707031 397.253906 704.015625 391.941406 706.515625 C 419.609375 706.925781 435.4375 698.453125 447.484375 686.515625 C 447.484375 686.515625 439.730469 701.210938 425.84375 710.191406 C 364.710938 749.730469 322.101562 743.871094 322.101562 743.871094 C 322.101562 743.871094 343.832031 763.816406 373.5625 755.304688 C 373.5625 755.304688 357.292969 771.296875 344.949219 776.054688 C 344.949219 776.054688 384.835938 790.597656 405.199219 761.679688 C 405.199219 761.679688 406.976562 778.550781 396.6875 784.160156 C 396.6875 784.160156 424.417969 776.242188 438.289062 754.699219 C 438.289062 754.699219 439.832031 772 432.003906 776.152344 C 432.003906 776.152344 466.6875 770.863281 477.574219 739.339844 C 478.773438 735.875 479.679688 731.867188 480.359375 727.5 C 489.535156 743.609375 510.246094 758.980469 510.246094 758.980469 C 509.289062 749.632812 511.0625 741.527344 511.0625 741.527344 C 517.136719 766.828125 557.867188 772.246094 557.867188 772.246094 C 551.535156 761.832031 551.230469 757.140625 551.691406 749.558594 C 564.3125 763.925781 577.574219 757.34375 577.574219 757.34375 C 567.667969 748.671875 563.992188 738.558594 563.992188 738.558594 C 589.457031 765.640625 614.433594 754.671875 614.433594 754.671875 C 606.125 753.542969 592.347656 737.328125 592.347656 737.328125 C 614.496094 740.328125 627.804688 729.378906 627.804688 729.378906 C 607.726562 724.972656 577.753906 720.160156 541.269531 705.09375 C 527.742188 699.511719 509.773438 689.574219 503.9375 675.695312 C 524.949219 695.5625 555.273438 696.78125 555.273438 696.78125 C 546.695312 692.699219 541.792969 678 541.792969 678 C 551.59375 687.390625 574.058594 683.722656 574.058594 683.722656 C 561.136719 679.875 561.71875 669.535156 561.804688 670.25 C 580.59375 673.511719 589.578125 663.714844 589.578125 663.714844 C 583.453125 664.121094 574.058594 657.589844 574.058594 657.589844 C 584.589844 656.410156 593.808594 647.628906 594.476562 643.710938 C 582.222656 649.015625 547.960938 649.363281 530.804688 642.421875 C 521.441406 638.636719 510.515625 632.183594 501.601562 620.78125 C 496.5 614.25 496.753906 611.042969 496.753906 611.042969 C 508.085938 624.558594 526.96875 625.109375 526.96875 625.109375 C 513.203125 620.320312 512.285156 609.066406 512.285156 609.066406 C 532.832031 630.449219 555.894531 621.683594 555.894531 621.683594 C 539.351562 616.101562 541.652344 602.410156 541.652344 602.410156 C 561.992188 616.34375 584.402344 603.363281 584.402344 603.363281 C 576.507812 606.808594 557.214844 594.25 557.214844 594.25 C 575.53125 595.960938 588.988281 570.199219 588.988281 570.199219 C 588.988281 570.199219 549.914062 590.359375 518.671875 577.800781 C 503.636719 571.765625 494.035156 564.46875 488.109375 558.523438 C 488.109375 558.523438 500.71875 567.167969 516.578125 569.890625 C 516.578125 569.890625 497.65625 555.535156 497.097656 547.902344 C 497.097656 547.902344 507.988281 559.886719 518.34375 562.921875 C 514.945312 556.277344 516.429688 551.761719 516.429688 551.761719 C 516.429688 551.761719 526.636719 562.464844 529.902344 562.605469 C 529.902344 562.605469 525.960938 554.4375 526.773438 551.71875 C 526.773438 551.71875 539.164062 558.25 545.5625 557.433594 C 545.5625 557.433594 534.207031 548.726562 535.488281 545.050781 C 535.488281 545.050781 549.78125 548.316406 556.046875 537.15625 C 556.046875 537.15625 500.359375 532.941406 493.144531 515.109375 C 493.144531 515.109375 521.328125 529.265625 541.609375 515.109375 C 541.609375 515.109375 496.414062 508.171875 489.335938 491.429688 C 489.335938 491.429688 513.296875 506.402344 520.375 501.910156 C 520.375 501.910156 507.578125 493.742188 510.300781 489.933594 C 510.300781 489.933594 525.683594 502.726562 536.300781 498.101562 C 536.300781 498.101562 524.871094 491.980469 524.320312 485.992188 C 524.320312 485.992188 545.96875 484.628906 552.503906 477.824219 C 552.503906 477.824219 501.449219 480.953125 498.453125 469.382812 C 498.453125 469.382812 515.609375 472.519531 522.074219 465.035156 C 522.074219 465.035156 507.714844 462.171875 507.171875 458.089844 C 507.171875 458.089844 524.871094 452.511719 525.136719 447.886719 C 525.136719 447.886719 495.988281 450.335938 488.785156 439.992188 C 488.195312 439.140625 488.3125 438.074219 488.105469 437.261719 C 495.171875 440.851562 509.046875 443.242188 515.609375 439.445312 C 515.609375 439.445312 497.230469 431.964844 495.191406 423.660156 C 495.191406 423.660156 511.390625 426.792969 517.789062 420.664062 C 517.789062 420.664062 489.351562 410.757812 481.761719 390.105469 C 488.816406 397.195312 492.109375 393.390625 492.109375 393.390625 C 483.667969 387.128906 478.832031 368.691406 478.832031 368.691406 C 477.402344 381.246094 472.195312 387.773438 465.867188 395.089844 C 468.902344 394.742188 471.855469 393.511719 474.285156 392.191406 C 468.148438 404.15625 456.8125 419.539062 439.183594 419.039062 C 439.183594 419.039062 456.0625 430.46875 465.921875 424.613281 C 465.921875 424.613281 455.144531 435.574219 449.019531 434.617188 C 452.285156 436.96875 453.714844 440.4375 467.144531 436.449219 C 467.144531 436.449219 450.347656 448.707031 444.898438 450.886719 C 444.898438 450.886719 461.414062 456.238281 473.171875 446.027344 C 473.171875 446.027344 466.957031 461.773438 435.644531 461.496094 C 435.644531 461.496094 445.085938 474.28125 459.109375 473.058594 C 459.109375 473.058594 447.894531 480.277344 429.65625 476.742188 C 429.65625 476.742188 433.105469 483.398438 437.464844 483.8125 C 437.464844 483.8125 416.90625 490.890625 410.917969 488.980469 C 410.917969 488.980469 426.300781 501.09375 441.683594 494.292969 C 441.683594 494.292969 437.875 504.222656 432.429688 504.089844 C 432.429688 504.089844 442.90625 508.578125 457.882812 496.332031 C 457.882812 496.332031 456.113281 504.628906 452.300781 505.855469 C 452.300781 505.855469 455.382812 513.210938 469.136719 502.324219 C 466.273438 503.28125 464.914062 524.640625 418.269531 523.410156 C 418.269531 523.410156 428.347656 538.789062 458.699219 536.476562 C 458.699219 536.476562 442.5 551.171875 404.109375 546.136719 C 404.109375 546.136719 412.546875 555.394531 428.347656 554.304688 C 428.347656 554.304688 424.804688 560.019531 417.179688 560.96875 C 417.179688 560.96875 423.4375 566.546875 435.828125 561.925781 C 435.828125 561.925781 423.523438 574.789062 415.359375 577.507812 C 415.359375 577.507812 436.546875 577.582031 447.210938 570.636719 C 445.816406 573.414062 444.015625 579.882812 434.824219 583.5625 C 436.867188 583.972656 450.074219 582.882812 461.921875 572.949219 C 461.433594 574.367188 446.261719 594.859375 423.664062 599.488281 C 405.15625 603.273438 365.203125 602.914062 359.046875 599.507812 C 359.046875 599.507812 373.246094 609.613281 394.613281 610.570312 C 394.613281 610.570312 384.914062 620.25 371.003906 623.070312 C 371.003906 623.070312 389.644531 628.757812 409.679688 621.03125 C 409.679688 621.03125 402.582031 631.414062 392.335938 631.113281 C 392.335938 631.113281 406.820312 638.691406 425.636719 624.359375 C 425.636719 624.359375 423.847656 638.210938 414.835938 644.933594 C 425.636719 644.464844 445.855469 641.890625 458.71875 620.375 C 458.71875 620.375 454.566406 636.390625 435.371094 648.75 " fill-opacity="1" fill-rule="nonzero"/><path fill="#385c05" d="M 157.476562 783.683594 C 157.476562 783.683594 174.777344 802.640625 205.902344 779.761719 C 205.902344 779.761719 199.117188 801.265625 190.511719 803.652344 C 190.511719 803.652344 210.199219 805.671875 223.597656 787.671875 C 223.597656 787.671875 226.257812 800.523438 214.242188 809.707031 C 214.242188 809.707031 236.582031 814.222656 254.902344 781.195312 C 254.902344 781.195312 252.578125 796.3125 247.863281 804.59375 C 247.863281 804.59375 281.742188 794.523438 286.121094 771.699219 C 286.121094 771.699219 288.402344 783.1875 273.945312 797.917969 C 289.863281 796.738281 306.070312 795.839844 309.753906 774.011719 C 309.753906 774.011719 312.675781 782.625 302.105469 796.25 C 314.617188 805.707031 340.753906 804.039062 336.527344 780.890625 C 337.15625 783.101562 335.765625 778.9375 336.527344 780.890625 C 351.304688 818.796875 383.8125 805.363281 383.8125 805.363281 C 366.847656 791.175781 358.421875 763.933594 358.421875 763.933594 C 369.273438 787.496094 424.21875 806.894531 424.21875 806.894531 C 416.96875 800.3125 414.136719 779.175781 414.136719 779.175781 C 444.273438 812.972656 471.601562 799.890625 471.601562 799.890625 C 458.523438 796.472656 455.832031 776.472656 455.832031 776.472656 C 498.421875 794.871094 513.222656 763.738281 513.222656 763.738281 C 513.222656 763.738281 442.203125 766.867188 389.511719 722.398438 C 376.660156 711.550781 366.804688 699.585938 359.234375 687.703125 C 372.53125 703.503906 397.789062 712.425781 397.789062 712.425781 C 391.441406 700.546875 388.890625 695.257812 391.171875 684.652344 C 401.734375 701.089844 413.023438 696.375 413.023438 696.375 C 401.820312 689.519531 402.132812 673.882812 402.132812 673.882812 C 407.652344 689.835938 437.769531 688.03125 437.769531 688.03125 C 429.550781 685.632812 423.585938 674.125 423.585938 674.125 C 445.5 680.519531 458.351562 669.585938 458.351562 669.585938 C 438.742188 662.082031 421.976562 658.925781 387.410156 638.15625 C 378.6875 632.910156 370.667969 625.878906 363.558594 618.3125 C 378.679688 628.960938 394.289062 627.695312 394.289062 627.695312 C 385.96875 622.710938 388.007812 610.058594 388.007812 610.058594 C 397.066406 620.5625 420.265625 619.003906 420.265625 619.003906 C 404.828125 616.199219 406.203125 602.320312 409.113281 604.113281 C 427.902344 609.253906 437.988281 600.164062 437.988281 600.164062 C 431.71875 599.988281 422.800781 592.429688 422.800781 592.429688 C 432.964844 591.304688 444.917969 580.296875 444.917969 580.296875 C 431.9375 584.507812 392.324219 582.402344 375.550781 573.679688 C 369.992188 570.789062 363.632812 564.328125 357.605469 556.984375 C 366.21875 560.992188 375.746094 559.714844 375.746094 559.714844 C 367.332031 551.902344 362.347656 539.863281 362.347656 539.863281 C 379.898438 556.472656 395.433594 550.363281 395.433594 550.363281 C 384.992188 549.539062 378.917969 538.226562 378.917969 538.226562 C 398.425781 548.261719 417.976562 544.519531 417.976562 544.519531 C 404.160156 540.136719 395.367188 529.246094 395.367188 529.246094 C 417.175781 530.609375 432.699219 521.886719 432.699219 521.886719 C 426.074219 524.675781 392.257812 524.007812 373.78125 518.445312 C 366.960938 516.394531 358.066406 510.546875 349.554688 503.984375 C 347.351562 500.929688 346.3125 495.792969 346.3125 495.792969 C 361.609375 508.964844 372.320312 504.136719 372.320312 504.136719 C 366.753906 504.277344 362.859375 493.605469 362.859375 493.605469 C 378.578125 500.917969 394.289062 487.902344 394.289062 487.902344 C 388.171875 489.945312 367.175781 482.339844 367.175781 482.339844 C 371.625 481.902344 372.179688 472.835938 372.179688 472.835938 C 353.542969 476.636719 345.058594 470.785156 345.058594 470.785156 C 349.128906 471.160156 353.167969 469.785156 355.9375 467.832031 C 349.507812 465.507812 347.382812 461.054688 347.382812 461.054688 C 352.394531 463.78125 359.621094 462.335938 362.53125 459.628906 C 365.332031 457.019531 365.324219 453.550781 365.324219 453.550781 C 333.339844 453.84375 328.925781 438.605469 328.925781 438.605469 C 335.183594 445.042969 348.8125 444.605469 348.8125 444.605469 C 343.25 442.261719 336.855469 431.441406 336.855469 431.441406 C 346.171875 438.167969 355.351562 433.195312 355.351562 433.195312 C 349.09375 434.21875 338.105469 418.71875 338.105469 418.71875 C 352.851562 429.828125 372.734375 412.71875 372.734375 412.71875 C 353.78125 413.285156 341.300781 398.640625 333.132812 385.578125 C 338 388.035156 351.6875 390.550781 351.6875 390.550781 C 343.914062 388.492188 328.652344 364.363281 328.652344 364.363281 C 333.222656 368.019531 336.730469 366.796875 336.730469 366.796875 C 326.363281 360.09375 324.230469 341.191406 324.230469 341.191406 C 325.535156 352.546875 310.808594 368.703125 310.808594 368.703125 C 317.34375 370.242188 321.101562 366.644531 321.101562 366.644531 C 320.871094 374.421875 308.0625 386.3125 308.0625 386.3125 C 314.234375 388.070312 318.878906 385.035156 321.808594 381.945312 C 313.886719 403.929688 285.117188 414.476562 285.117188 414.476562 C 291.65625 421.054688 308.207031 417.691406 308.207031 417.691406 C 306.121094 426.617188 287.34375 434.660156 287.34375 434.660156 C 294.054688 438.738281 308.644531 434.59375 315.441406 432.300781 C 315.234375 433.1875 315 434.164062 314.738281 435.246094 C 312.097656 446.359375 282.828125 448.140625 282.828125 448.140625 C 284.390625 454.394531 298.675781 452.714844 298.675781 452.714844 C 298.121094 457.105469 278.335938 460.011719 278.335938 460.011719 C 284.941406 468.058594 305.351562 462.410156 305.351562 462.410156 C 291.996094 474.921875 249.652344 475.90625 249.652344 475.90625 C 256.332031 483.214844 278.445312 484.683594 278.445312 484.683594 C 275.410156 489.441406 264.878906 494.109375 264.878906 494.109375 C 275.730469 499.082031 292.769531 488.925781 292.769531 488.925781 C 290.015625 495.570312 283.527344 500.871094 283.527344 500.871094 C 288.441406 501.855469 296.0625 499.523438 302.289062 497.035156 C 297.382812 500.894531 290.992188 504.929688 282.707031 508.628906 C 254.714844 521.109375 225.753906 511.128906 225.753906 511.128906 C 225.753906 511.128906 235.050781 529.246094 251.65625 527 C 251.65625 527 239.523438 537.054688 232.21875 534.277344 C 232.21875 534.277344 248.207031 545.695312 266.226562 532.398438 C 266.226562 532.398438 267.316406 541.761719 252.453125 547.417969 C 252.453125 547.417969 271.65625 556.378906 289.601562 536.40625 C 289.601562 536.40625 290.839844 551.6875 279.363281 555.546875 C 279.363281 555.546875 297.488281 551.839844 307.320312 539.28125 C 307.320312 539.28125 307.335938 539.296875 307.375 539.328125 C 299.5625 548.902344 288.46875 560.402344 276.355469 566.390625 C 253.28125 577.800781 224.339844 584.410156 199.257812 578.066406 C 212.816406 596.414062 237.644531 593.5 237.644531 593.5 C 237.644531 593.5 239.382812 598.628906 214.136719 605.453125 C 214.136719 605.453125 246.738281 615.859375 254.75 603.632812 C 254.75 603.632812 241.582031 623.015625 236.394531 626.027344 C 245.574219 628.289062 269.433594 623.28125 273.945312 614.074219 C 273.945312 614.074219 276.355469 620.464844 266.988281 628.253906 C 266.988281 628.253906 276.761719 630.316406 286.808594 625.84375 C 265.605469 649.035156 231.507812 674.121094 177.0625 697.761719 C 177.0625 697.761719 189.109375 704.078125 198.011719 700.847656 C 209.691406 696.605469 216.226562 690.421875 216.226562 690.421875 C 216.226562 690.421875 215.113281 695.332031 213.445312 698.203125 C 211.214844 702.042969 200.925781 712.523438 200.925781 712.523438 C 200.925781 712.523438 227.371094 704.941406 230.96875 694.175781 C 230.96875 694.175781 230.84375 712.445312 222.128906 720.203125 C 222.128906 720.203125 254.421875 704.753906 254.46875 685.695312 C 254.46875 685.695312 254.480469 691.21875 254.328125 694.175781 C 254.136719 698.035156 250.300781 714.472656 250.300781 714.472656 C 250.300781 714.472656 274.734375 700.03125 283.222656 680.246094 C 283.222656 680.246094 281.324219 697.792969 273.289062 706.992188 C 273.289062 706.992188 285.402344 706.457031 294.851562 695.351562 C 275.351562 724.523438 236.167969 760.21875 157.476562 783.683594 " fill-opacity="1" fill-rule="nonzero"/><path fill="#385c05" d="M 37.441406 805.566406 C 37.441406 805.566406 49.917969 823.101562 72.34375 801.933594 C 72.34375 801.933594 67.457031 821.820312 61.253906 824.03125 C 61.253906 824.03125 75.441406 825.898438 85.097656 809.25 C 85.097656 809.25 87.015625 821.132812 78.359375 829.628906 C 78.359375 829.628906 94.460938 833.804688 107.667969 803.261719 C 107.667969 803.261719 105.984375 817.246094 102.59375 824.902344 C 102.59375 824.902344 127.011719 815.589844 130.167969 794.476562 C 130.167969 794.476562 131.816406 805.101562 121.386719 818.730469 C 132.863281 817.636719 144.546875 816.800781 147.199219 796.617188 C 147.199219 796.617188 149.308594 804.589844 141.691406 817.191406 C 150.714844 825.929688 169.542969 824.390625 166.5 802.980469 C 166.957031 805.019531 165.953125 801.175781 166.5 802.980469 C 177.152344 838.039062 200.585938 825.613281 200.585938 825.613281 C 188.355469 812.492188 182.28125 787.292969 182.28125 787.292969 C 190.101562 809.089844 229.710938 827.03125 229.710938 827.03125 C 224.480469 820.945312 222.441406 801.394531 222.441406 801.394531 C 244.164062 832.652344 263.863281 820.550781 263.863281 820.550781 C 254.4375 817.390625 252.496094 798.898438 252.496094 798.898438 C 283.199219 815.914062 293.871094 787.117188 293.871094 787.117188 C 293.871094 787.117188 242.671875 790.007812 204.695312 748.878906 C 195.429688 738.84375 188.324219 727.78125 182.871094 716.785156 C 192.453125 731.40625 210.660156 739.652344 210.660156 739.652344 C 206.082031 728.667969 204.246094 723.777344 205.894531 713.964844 C 213.503906 729.167969 221.644531 724.804688 221.644531 724.804688 C 213.566406 718.46875 213.789062 704.003906 213.789062 704.003906 C 217.773438 718.761719 239.480469 717.085938 239.480469 717.085938 C 233.558594 714.871094 229.253906 704.230469 229.253906 704.230469 C 245.050781 710.152344 254.316406 700.03125 254.316406 700.03125 C 240.179688 693.09375 228.097656 690.171875 203.179688 670.960938 C 196.890625 666.105469 191.113281 659.613281 185.980469 652.609375 C 196.882812 662.460938 208.140625 661.285156 208.140625 661.285156 C 202.136719 656.679688 203.613281 644.976562 203.613281 644.976562 C 210.136719 654.683594 226.859375 653.246094 226.859375 653.246094 C 215.734375 650.652344 216.726562 637.8125 218.820312 639.476562 C 232.363281 644.226562 239.640625 635.816406 239.640625 635.816406 C 235.117188 635.652344 228.6875 628.667969 228.6875 628.667969 C 236.015625 627.628906 244.632812 617.445312 244.632812 617.445312 C 235.273438 621.335938 206.722656 619.394531 194.632812 611.324219 C 190.625 608.652344 186.035156 602.675781 181.695312 595.878906 C 187.90625 599.585938 194.773438 598.410156 194.773438 598.410156 C 188.703125 591.183594 185.109375 580.046875 185.109375 580.046875 C 197.761719 595.410156 208.960938 589.757812 208.960938 589.757812 C 201.4375 588.996094 197.054688 578.53125 197.054688 578.53125 C 211.117188 587.8125 225.21875 584.355469 225.21875 584.355469 C 215.25 580.300781 208.914062 570.230469 208.914062 570.230469 C 224.632812 571.484375 235.824219 563.421875 235.824219 563.421875 C 231.050781 566 206.671875 565.378906 193.351562 560.238281 C 188.441406 558.339844 182.03125 552.929688 175.894531 546.863281 C 174.304688 544.039062 173.554688 539.292969 173.554688 539.292969 C 184.582031 551.464844 192.300781 547.003906 192.300781 547.003906 C 188.289062 547.136719 185.480469 537.261719 185.480469 537.261719 C 196.8125 544.027344 208.140625 531.984375 208.140625 531.984375 C 203.726562 533.875 188.59375 526.84375 188.59375 526.84375 C 191.800781 526.441406 192.203125 518.046875 192.203125 518.046875 C 178.765625 521.566406 172.65625 516.15625 172.65625 516.15625 C 175.582031 516.503906 178.492188 515.230469 180.496094 513.425781 C 175.855469 511.269531 174.328125 507.15625 174.328125 507.15625 C 177.9375 509.675781 183.148438 508.34375 185.246094 505.835938 C 187.257812 503.425781 187.257812 500.210938 187.257812 500.210938 C 164.203125 500.488281 161.019531 486.394531 161.019531 486.394531 C 165.539062 492.34375 175.359375 491.941406 175.359375 491.941406 C 171.34375 489.777344 166.738281 479.765625 166.738281 479.765625 C 173.453125 485.992188 180.070312 481.390625 180.070312 481.390625 C 175.558594 482.332031 167.636719 467.996094 167.636719 467.996094 C 178.265625 478.28125 192.597656 462.445312 192.597656 462.445312 C 178.9375 462.976562 169.945312 449.429688 164.058594 437.34375 C 167.566406 439.613281 177.433594 441.945312 177.433594 441.945312 C 171.828125 440.039062 160.824219 417.71875 160.824219 417.71875 C 164.121094 421.101562 166.652344 419.976562 166.652344 419.976562 C 159.175781 413.777344 157.640625 396.289062 157.640625 396.289062 C 158.574219 406.796875 147.960938 421.742188 147.960938 421.742188 C 152.675781 423.167969 155.382812 419.835938 155.382812 419.835938 C 155.21875 427.023438 145.984375 438.019531 145.984375 438.019531 C 150.433594 439.65625 153.78125 436.839844 155.886719 433.984375 C 150.179688 454.316406 129.449219 464.070312 129.449219 464.070312 C 134.15625 470.15625 146.085938 467.046875 146.085938 467.046875 C 144.582031 475.300781 131.050781 482.742188 131.050781 482.742188 C 135.882812 486.515625 146.402344 482.679688 151.304688 480.5625 C 151.152344 481.378906 150.980469 482.277344 150.800781 483.285156 C 148.894531 493.5625 127.792969 495.210938 127.792969 495.210938 C 128.917969 500.996094 139.214844 499.445312 139.214844 499.445312 C 138.816406 503.5 124.554688 506.195312 124.554688 506.195312 C 129.316406 513.628906 144.027344 508.410156 144.027344 508.410156 C 134.402344 519.984375 103.886719 520.890625 103.886719 520.890625 C 108.695312 527.65625 124.632812 529.007812 124.632812 529.007812 C 122.449219 533.40625 114.855469 537.730469 114.855469 537.730469 C 122.679688 542.328125 134.957031 532.933594 134.957031 532.933594 C 132.972656 539.078125 128.296875 543.984375 128.296875 543.984375 C 131.839844 544.890625 137.332031 542.738281 141.824219 540.4375 C 138.289062 544.003906 133.679688 547.738281 127.707031 551.160156 C 107.527344 562.703125 86.65625 553.472656 86.65625 553.472656 C 86.65625 553.472656 93.355469 570.230469 105.324219 568.148438 C 105.324219 568.148438 96.582031 577.449219 91.3125 574.878906 C 91.3125 574.878906 102.839844 585.4375 115.824219 573.144531 C 115.824219 573.144531 116.609375 581.796875 105.902344 587.03125 C 105.902344 587.03125 119.746094 595.328125 132.679688 576.851562 C 132.679688 576.851562 133.570312 590.988281 125.296875 594.554688 C 125.296875 594.554688 138.363281 591.128906 145.449219 579.511719 C 145.449219 579.511719 145.460938 579.523438 145.484375 579.554688 C 139.859375 588.40625 131.859375 599.042969 123.128906 604.582031 C 106.496094 615.132812 85.632812 621.25 67.558594 615.382812 C 77.332031 632.355469 95.222656 629.652344 95.222656 629.652344 C 95.222656 629.652344 96.476562 634.398438 78.285156 640.710938 C 78.285156 640.710938 101.777344 650.335938 107.558594 639.03125 C 107.558594 639.03125 98.058594 656.953125 94.320312 659.746094 C 100.945312 661.839844 118.136719 657.203125 121.386719 648.683594 C 121.386719 648.683594 123.128906 654.597656 116.378906 661.800781 C 116.378906 661.800781 123.429688 663.707031 130.667969 659.574219 C 115.378906 681.019531 90.804688 704.222656 51.554688 726.085938 C 51.554688 726.085938 60.242188 731.9375 66.652344 728.941406 C 75.078125 725.023438 79.789062 719.300781 79.789062 719.300781 C 79.789062 719.300781 78.984375 723.847656 77.78125 726.5 C 76.171875 730.050781 68.757812 739.742188 68.757812 739.742188 C 68.757812 739.742188 87.820312 732.734375 90.414062 722.769531 C 90.414062 722.769531 90.320312 739.671875 84.046875 746.851562 C 84.046875 746.851562 107.320312 732.554688 107.355469 714.925781 C 107.355469 714.925781 107.363281 720.039062 107.253906 722.769531 C 107.113281 726.34375 104.347656 741.542969 104.347656 741.542969 C 104.347656 741.542969 121.960938 728.1875 128.078125 709.894531 C 128.078125 709.894531 126.710938 726.117188 120.914062 734.632812 C 120.914062 734.632812 129.648438 734.132812 136.460938 723.859375 C 122.40625 750.847656 94.164062 783.855469 37.441406 805.566406 " fill-opacity="1" fill-rule="nonzero"/><path fill="#385c05" d="M 441.226562 818.324219 C 441.226562 818.324219 453.703125 831.984375 476.136719 815.492188 C 476.136719 815.492188 471.242188 830.992188 465.039062 832.714844 C 465.039062 832.714844 479.230469 834.167969 488.882812 821.195312 C 488.882812 821.195312 490.800781 830.457031 482.144531 837.078125 C 482.144531 837.078125 498.246094 840.328125 511.453125 816.527344 C 511.453125 816.527344 509.773438 827.421875 506.378906 833.398438 C 506.378906 833.398438 530.800781 826.136719 533.953125 809.683594 C 533.953125 809.683594 535.601562 817.957031 525.175781 828.582031 C 536.65625 827.730469 548.332031 827.078125 550.988281 811.347656 C 550.988281 811.347656 553.09375 817.5625 545.476562 827.378906 C 554.5 834.195312 573.328125 832.996094 570.285156 816.308594 C 570.742188 817.902344 569.738281 814.902344 570.285156 816.308594 C 580.9375 843.632812 604.371094 833.945312 604.371094 833.945312 C 592.140625 823.722656 586.070312 804.082031 586.070312 804.082031 C 593.894531 821.066406 633.496094 835.050781 633.496094 835.050781 C 628.273438 830.304688 626.226562 815.074219 626.226562 815.074219 C 647.949219 839.433594 667.648438 830 667.648438 830 C 658.226562 827.535156 656.28125 813.125 656.28125 813.125 C 686.988281 826.386719 697.65625 803.945312 697.65625 803.945312 C 697.65625 803.945312 646.464844 806.195312 608.480469 774.144531 C 599.214844 766.324219 592.109375 757.699219 586.65625 749.132812 C 596.238281 760.53125 614.445312 766.957031 614.445312 766.957031 C 609.867188 758.394531 608.03125 754.578125 609.679688 746.9375 C 617.289062 758.785156 625.429688 755.382812 625.429688 755.382812 C 617.351562 750.449219 617.574219 739.175781 617.574219 739.175781 C 621.558594 750.671875 643.265625 749.371094 643.265625 749.371094 C 637.34375 747.640625 633.039062 739.355469 633.039062 739.355469 C 648.835938 743.960938 658.101562 736.078125 658.101562 736.078125 C 643.96875 730.671875 631.882812 728.394531 606.964844 713.417969 C 600.675781 709.640625 594.898438 704.578125 589.773438 699.117188 C 600.675781 706.796875 611.925781 705.882812 611.925781 705.882812 C 605.921875 702.292969 607.398438 693.171875 607.398438 693.171875 C 613.921875 700.738281 630.648438 699.617188 630.648438 699.617188 C 619.519531 697.597656 620.515625 687.59375 622.609375 688.882812 C 636.148438 692.589844 643.425781 686.035156 643.425781 686.035156 C 638.902344 685.90625 632.472656 680.460938 632.472656 680.460938 C 639.804688 679.652344 648.417969 671.714844 648.417969 671.714844 C 639.058594 674.753906 610.507812 673.238281 598.417969 666.949219 C 594.410156 664.863281 589.828125 660.207031 585.480469 654.914062 C 591.691406 657.796875 598.558594 656.886719 598.558594 656.886719 C 592.492188 651.25 588.902344 642.574219 588.902344 642.574219 C 601.546875 654.542969 612.75 650.136719 612.75 650.136719 C 605.222656 649.546875 600.839844 641.390625 600.839844 641.390625 C 614.902344 648.621094 629.003906 645.925781 629.003906 645.925781 C 619.035156 642.773438 612.699219 634.917969 612.699219 634.917969 C 628.417969 635.898438 639.609375 629.617188 639.609375 629.617188 C 634.835938 631.625 610.460938 631.144531 597.144531 627.132812 C 592.226562 625.65625 585.816406 621.4375 579.679688 616.710938 C 578.089844 614.507812 577.339844 610.808594 577.339844 610.808594 C 588.367188 620.292969 596.085938 616.820312 596.085938 616.820312 C 592.078125 616.921875 589.265625 609.226562 589.265625 609.226562 C 600.597656 614.5 611.925781 605.117188 611.925781 605.117188 C 607.511719 606.589844 592.378906 601.105469 592.378906 601.105469 C 595.585938 600.789062 595.988281 594.253906 595.988281 594.253906 C 582.550781 597 576.441406 592.78125 576.441406 592.78125 C 579.367188 593.050781 582.277344 592.058594 584.28125 590.652344 C 579.640625 588.972656 578.113281 585.765625 578.113281 585.765625 C 581.722656 587.730469 586.933594 586.691406 589.03125 584.738281 C 591.050781 582.859375 591.042969 580.355469 591.042969 580.355469 C 567.988281 580.5625 564.8125 569.585938 564.8125 569.585938 C 569.324219 574.222656 579.144531 573.910156 579.144531 573.910156 C 575.136719 572.21875 570.523438 564.417969 570.523438 564.417969 C 577.242188 569.269531 583.855469 565.683594 583.855469 565.683594 C 579.34375 566.421875 571.421875 555.25 571.421875 555.25 C 582.054688 563.261719 596.382812 550.929688 596.382812 550.929688 C 582.722656 551.335938 573.730469 540.777344 567.84375 531.363281 C 571.351562 533.132812 581.21875 534.941406 581.21875 534.941406 C 575.613281 533.464844 564.609375 516.070312 564.609375 516.070312 C 567.90625 518.707031 570.4375 517.824219 570.4375 517.824219 C 562.960938 512.992188 561.425781 499.367188 561.425781 499.367188 C 562.363281 507.550781 551.746094 519.199219 551.746094 519.199219 C 556.460938 520.304688 559.167969 517.714844 559.167969 517.714844 C 559.003906 523.320312 549.769531 531.886719 549.769531 531.886719 C 554.21875 533.160156 557.566406 530.96875 559.679688 528.746094 C 553.96875 544.585938 533.234375 552.1875 533.234375 552.1875 C 537.941406 556.933594 549.871094 554.511719 549.871094 554.511719 C 548.367188 560.9375 534.835938 566.738281 534.835938 566.738281 C 539.667969 569.675781 550.195312 566.695312 555.089844 565.039062 C 554.9375 565.679688 554.773438 566.378906 554.585938 567.164062 C 552.679688 575.171875 531.578125 576.457031 531.578125 576.457031 C 532.703125 580.964844 543.003906 579.753906 543.003906 579.753906 C 542.601562 582.917969 528.339844 585.019531 528.339844 585.019531 C 533.105469 590.8125 547.816406 586.746094 547.816406 586.746094 C 538.191406 595.765625 507.671875 596.46875 507.671875 596.46875 C 512.480469 601.742188 528.417969 602.800781 528.417969 602.800781 C 526.234375 606.226562 518.640625 609.589844 518.640625 609.589844 C 526.464844 613.175781 538.742188 605.855469 538.742188 605.855469 C 536.757812 610.644531 532.082031 614.464844 532.082031 614.464844 C 535.625 615.175781 541.117188 613.496094 545.609375 611.703125 C 542.074219 614.484375 537.464844 617.390625 531.492188 620.058594 C 511.3125 629.058594 490.441406 621.863281 490.441406 621.863281 C 490.441406 621.863281 497.140625 634.921875 509.109375 633.296875 C 509.109375 633.296875 500.367188 640.546875 495.101562 638.542969 C 495.101562 638.542969 506.625 646.773438 519.609375 637.195312 C 519.609375 637.195312 520.402344 643.941406 509.6875 648.011719 C 509.6875 648.011719 523.53125 654.480469 536.46875 640.078125 C 536.46875 640.078125 537.355469 651.097656 529.089844 653.878906 C 529.089844 653.878906 542.148438 651.207031 549.234375 642.152344 C 549.234375 642.152344 549.25 642.164062 549.269531 642.191406 C 543.644531 649.089844 535.652344 657.371094 526.914062 661.691406 C 510.28125 669.914062 489.417969 674.679688 471.34375 670.109375 C 481.117188 683.339844 499.015625 681.234375 499.015625 681.234375 C 499.015625 681.234375 500.261719 684.933594 482.070312 689.851562 C 482.070312 689.851562 505.566406 697.347656 511.34375 688.535156 C 511.34375 688.535156 501.851562 702.507812 498.105469 704.679688 C 504.730469 706.3125 521.921875 702.703125 525.175781 696.0625 C 525.175781 696.0625 526.914062 700.667969 520.164062 706.28125 C 520.164062 706.28125 527.214844 707.769531 534.453125 704.546875 C 519.164062 721.261719 494.589844 739.347656 455.339844 756.386719 C 455.339844 756.386719 464.027344 760.9375 470.445312 758.613281 C 478.863281 755.554688 483.574219 751.097656 483.574219 751.097656 C 483.574219 751.097656 482.773438 754.632812 481.566406 756.710938 C 479.964844 759.472656 472.542969 767.03125 472.542969 767.03125 C 472.542969 767.03125 491.609375 761.558594 494.199219 753.800781 C 494.199219 753.800781 494.105469 766.96875 487.832031 772.5625 C 487.832031 772.5625 511.105469 761.425781 511.140625 747.691406 C 511.140625 747.691406 511.148438 751.671875 511.042969 753.800781 C 510.898438 756.582031 508.132812 768.429688 508.132812 768.429688 C 508.132812 768.429688 525.753906 758.023438 531.863281 743.757812 C 531.863281 743.757812 530.496094 756.40625 524.707031 763.042969 C 524.707031 763.042969 533.441406 762.65625 540.246094 754.652344 C 526.191406 775.675781 497.949219 801.40625 441.226562 818.324219 " fill-opacity="1" fill-rule="nonzero"/><path fill="#91ad51" d="M 485.25 832.203125 C 536.089844 821.601562 538.324219 808.847656 538.324219 808.847656 C 502.757812 811.5625 489.515625 798.011719 489.515625 798.011719 C 550.601562 800.078125 555.066406 768.78125 555.066406 768.78125 C 539.914062 788.710938 528.265625 782.011719 528.265625 782.011719 C 532.734375 780.582031 534.8125 770.851562 534.8125 770.851562 C 517.265625 785.199219 504.988281 779.941406 504.988281 779.941406 C 511.359375 780.101562 515.828125 768.460938 515.828125 768.460938 C 497.800781 776.433594 479.78125 762.246094 479.78125 762.246094 C 486.800781 764.480469 510.886719 756.1875 510.886719 756.1875 C 505.777344 755.710938 505.144531 745.824219 505.144531 745.824219 C 526.511719 749.964844 541.59375 737.984375 541.59375 737.984375 C 525.167969 739.414062 511.6875 724.828125 511.6875 724.828125 C 548.375 725.152344 554.75 708.511719 554.75 708.511719 C 547.570312 715.53125 531.46875 711.277344 531.46875 711.277344 C 537.84375 708.726562 545.652344 700.707031 545.652344 700.707031 C 534.96875 708.039062 523.808594 697.25 523.808594 697.25 C 530.988281 698.363281 544.222656 686.832031 544.222656 686.832031 C 534.617188 690.59375 523.652344 682.261719 523.652344 682.261719 C 539.394531 676.566406 548.441406 666.09375 553.648438 656.242188 C 552.160156 657.082031 550.828125 657.796875 550.085938 658.109375 C 547.21875 659.300781 543.265625 659.300781 543.265625 659.300781 C 553.957031 647.824219 559.855469 619.125 559.855469 619.125 C 559.265625 632.050781 572.457031 653.167969 576.445312 656.113281 C 573.292969 655.992188 569.304688 654.839844 566.195312 653.765625 C 577.683594 672.664062 602.933594 681.421875 602.933594 681.421875 C 595.441406 688.597656 578.511719 685.71875 578.511719 685.71875 C 580.902344 695.441406 602.433594 704.210938 602.433594 704.210938 C 594.746094 708.660156 578.003906 704.136719 570.210938 701.644531 C 570.457031 702.605469 570.71875 703.667969 571.015625 704.851562 C 574.046875 716.964844 613.601562 714.101562 613.601562 714.101562 C 613.285156 719.515625 592.546875 726.050781 592.546875 726.050781 C 593.1875 730.835938 610.015625 734.1875 610.015625 734.1875 C 602.433594 742.949219 582.339844 739.285156 582.339844 739.285156 C 585.851562 752.839844 645.660156 749.167969 645.660156 749.167969 C 638.007812 757.140625 612.644531 758.734375 612.644531 758.734375 C 613.285156 765.753906 626.683594 772.925781 626.683594 772.925781 C 614.238281 778.347656 596.21875 763.359375 596.21875 763.359375 C 593.03125 767.828125 608.019531 777.394531 608.019531 777.394531 C 599.726562 782.652344 571.65625 765.113281 571.65625 765.113281 C 579.945312 784.726562 632.898438 792.855469 632.898438 792.855469 C 609.136719 809.4375 576.117188 792.855469 576.117188 792.855469 C 584.574219 813.742188 649.8125 818.683594 649.8125 818.683594 C 642.46875 831.757812 625.722656 827.933594 625.722656 827.933594 C 624.925781 833.355469 637.527344 842.4375 637.527344 842.4375 C 630.03125 843.394531 615.519531 835.746094 615.519531 835.746094 C 614.554688 838.933594 619.183594 848.496094 619.183594 848.496094 C 615.359375 848.335938 603.390625 835.746094 603.390625 835.746094 L 605.625 848.816406 C 593.503906 845.3125 580.742188 831.277344 580.742188 831.277344 C 579.789062 840.523438 597.648438 858.699219 597.648438 858.699219 C 580.105469 855.832031 570.21875 842.4375 570.21875 842.4375 L 570.21875 855.511719 L 563.679688 855.675781 L 564.300781 832.210938 C 563.101562 837.175781 561.992188 841.597656 559.851562 844.515625 C 552.257812 854.816406 529.394531 853.175781 529.394531 853.175781 C 541.03125 851.414062 544.464844 836.511719 544.464844 836.511719 C 531.382812 846.875 521.976562 847.035156 521.976562 847.035156 C 525.5625 843.207031 523.292969 840.578125 523.292969 840.578125 C 511.6875 849.304688 502.355469 846.796875 502.355469 846.796875 C 511.289062 843.484375 513.679688 841.488281 515.433594 838.984375 C 496.933594 840.253906 485.25 832.203125 485.25 832.203125 " fill-opacity="1" fill-rule="nonzero"/><path fill="#91ad51" d="M 234.472656 789.671875 C 277.878906 776.839844 279.78125 761.402344 279.78125 761.402344 C 249.417969 764.679688 238.113281 748.28125 238.113281 748.28125 C 290.265625 750.789062 294.078125 712.902344 294.078125 712.902344 C 281.140625 737.023438 271.199219 728.917969 271.199219 728.917969 C 275.011719 727.183594 276.78125 715.40625 276.78125 715.40625 C 261.804688 732.777344 251.320312 726.410156 251.320312 726.410156 C 256.765625 726.597656 260.574219 712.511719 260.574219 712.511719 C 245.191406 722.164062 229.800781 704.984375 229.800781 704.984375 C 235.796875 707.691406 256.355469 697.652344 256.355469 697.652344 C 251.996094 697.074219 251.457031 685.109375 251.457031 685.109375 C 269.703125 690.125 282.578125 675.617188 282.578125 675.617188 C 268.550781 677.351562 257.042969 659.695312 257.042969 659.695312 C 288.359375 660.082031 293.804688 639.949219 293.804688 639.949219 C 287.671875 648.4375 273.925781 643.289062 273.925781 643.289062 C 279.375 640.199219 286.042969 630.492188 286.042969 630.492188 C 276.921875 639.367188 267.394531 626.308594 267.394531 626.308594 C 273.519531 627.65625 284.816406 613.703125 284.816406 613.703125 C 276.617188 618.257812 267.253906 608.167969 267.253906 608.167969 C 280.695312 601.273438 288.421875 588.589844 292.867188 576.667969 C 291.601562 577.683594 290.460938 578.550781 289.828125 578.925781 C 287.375 580.375 284.003906 580.375 284.003906 580.375 C 293.128906 566.476562 298.167969 531.742188 298.167969 531.742188 C 297.65625 547.386719 308.925781 572.945312 312.328125 576.515625 C 309.636719 576.363281 306.234375 574.976562 303.574219 573.667969 C 313.382812 596.550781 334.945312 607.148438 334.945312 607.148438 C 328.546875 615.839844 314.09375 612.351562 314.09375 612.351562 C 316.132812 624.121094 334.519531 634.734375 334.519531 634.734375 C 327.949219 640.121094 313.664062 634.65625 307.007812 631.632812 C 307.214844 632.792969 307.441406 634.078125 307.695312 635.507812 C 310.285156 650.179688 344.054688 646.703125 344.054688 646.703125 C 343.777344 653.265625 326.074219 661.175781 326.074219 661.175781 C 326.625 666.96875 340.984375 671.023438 340.984375 671.023438 C 334.519531 681.632812 317.363281 677.199219 317.363281 677.199219 C 320.359375 693.597656 371.417969 689.160156 371.417969 689.160156 C 364.886719 698.8125 343.230469 700.742188 343.230469 700.742188 C 343.777344 709.230469 355.21875 717.914062 355.21875 717.914062 C 344.59375 724.480469 329.210938 706.335938 329.210938 706.335938 C 326.484375 711.738281 339.285156 723.320312 339.285156 723.320312 C 332.207031 729.691406 308.238281 708.457031 308.238281 708.457031 C 315.316406 732.199219 360.527344 742.042969 360.527344 742.042969 C 340.234375 762.113281 312.050781 742.042969 312.050781 742.042969 C 319.269531 767.320312 374.960938 773.304688 374.960938 773.304688 C 368.695312 789.132812 354.402344 784.5 354.402344 784.5 C 353.71875 791.0625 364.476562 802.0625 364.476562 802.0625 C 358.078125 803.21875 345.683594 793.957031 345.683594 793.957031 C 344.867188 797.816406 348.8125 809.394531 348.8125 809.394531 C 345.550781 809.203125 335.335938 793.957031 335.335938 793.957031 L 337.242188 809.78125 C 326.890625 805.539062 316 788.554688 316 788.554688 C 315.183594 799.746094 330.433594 821.75 330.433594 821.75 C 315.453125 818.273438 307.015625 802.0625 307.015625 802.0625 L 307.015625 817.890625 L 301.433594 818.078125 L 301.957031 789.6875 C 300.9375 795.691406 299.988281 801.046875 298.164062 804.570312 C 291.679688 817.050781 272.15625 815.054688 272.15625 815.054688 C 282.097656 812.929688 285.023438 794.886719 285.023438 794.886719 C 273.859375 807.429688 265.824219 807.625 265.824219 807.625 C 268.890625 802.996094 266.949219 799.804688 266.949219 799.804688 C 257.042969 810.375 249.074219 807.332031 249.074219 807.332031 C 256.703125 803.328125 258.742188 800.917969 260.242188 797.875 C 244.449219 799.421875 234.472656 789.671875 234.472656 789.671875 " fill-opacity="1" fill-rule="nonzero"/><path fill="#4b7b07" d="M 256.851562 819.304688 C 256.851562 819.304688 269.664062 840.679688 304.019531 825.082031 C 304.019531 825.082031 293.25 844.148438 284.539062 844.726562 C 284.539062 844.726562 302.996094 850.503906 319.402344 836.0625 C 319.402344 836.0625 319.402344 848.769531 306.070312 855.128906 C 306.070312 855.128906 326.582031 863.792969 350.683594 836.0625 C 350.683594 836.0625 346.359375 846.851562 340.207031 853.78125 C 340.207031 853.78125 361.75 854.273438 370.460938 833.476562 C 370.460938 833.476562 365.488281 849.578125 358.820312 854.203125 C 358.820312 854.203125 388.542969 848.109375 399.3125 823.847656 C 399.3125 823.847656 400.410156 839.050781 394.769531 844.824219 C 394.769531 844.824219 401.359375 846.816406 412.699219 839.546875 C 418.832031 835.625 426.683594 824.457031 426.683594 824.457031 C 426.683594 824.457031 435.644531 842.621094 453.082031 857.957031 C 442.152344 832.929688 447.652344 822.082031 447.652344 822.082031 C 447.652344 822.082031 449.519531 829.734375 463.636719 840.777344 C 478.441406 852.363281 494.941406 852.800781 494.941406 852.800781 C 483.683594 839.796875 476.214844 824.492188 476.214844 824.492188 C 500.097656 850.59375 540.355469 851.445312 540.355469 851.445312 C 533.070312 847.253906 526.332031 829.214844 526.332031 829.214844 C 543.183594 844.339844 569.007812 832.628906 569.007812 832.628906 C 557.628906 832.527344 544.289062 817.832031 544.289062 817.832031 C 571.539062 823.355469 587.007812 803.109375 587.007812 803.109375 C 587.007812 803.109375 540.601562 804.894531 498.988281 786.546875 C 486.46875 781.019531 467.6875 770.347656 462.53125 753.53125 C 470.078125 767.128906 492.359375 775.128906 509.546875 773.171875 L 499.847656 759.300781 C 510.898438 770.832031 533.855469 769.855469 549.195312 768.257812 C 540.429688 762.867188 529.921875 753.410156 529.921875 753.410156 C 542.445312 757.214844 565.335938 753.363281 574.234375 736.117188 C 513.601562 730.46875 482.566406 719.894531 457.378906 696.847656 C 476.914062 705.664062 500.585938 705.433594 500.585938 705.433594 C 492 701.753906 491.53125 686.515625 491.53125 686.515625 C 501.347656 694.984375 523.839844 691.667969 523.839844 691.667969 C 510.539062 690.113281 511.359375 678.871094 511.566406 679.523438 C 530.386719 682.46875 539.382812 673.632812 539.382812 673.632812 C 533.246094 674.003906 523.839844 668.113281 523.839844 668.113281 C 533.652344 666.269531 544.289062 655.59375 544.289062 655.59375 C 532.015625 660.378906 493.164062 661.851562 475.988281 655.59375 C 470.46875 653.582031 463.894531 648.683594 457.511719 642.957031 C 466.390625 647.847656 475.472656 648.117188 475.472656 648.117188 C 463.058594 643.800781 462.230469 633.652344 462.230469 633.652344 C 480.757812 652.9375 501.554688 645.03125 501.554688 645.03125 C 486.636719 640 488.714844 627.652344 488.714844 627.652344 C 507.050781 640.210938 527.257812 628.507812 527.257812 628.507812 C 520.140625 631.621094 502.738281 620.292969 502.738281 620.292969 C 519.257812 621.835938 531.390625 598.613281 531.390625 598.613281 C 531.390625 598.613281 496.511719 615.882812 467.984375 605.464844 C 448.417969 598.3125 444.363281 589.605469 444.363281 589.605469 C 444.363281 589.605469 448.480469 592.929688 456.515625 597.023438 C 463.011719 600.335938 468.671875 601.136719 474.566406 600.359375 C 465.554688 599.386719 466.035156 590.277344 466.035156 590.277344 C 476.429688 597.820312 490.296875 594.542969 490.296875 594.542969 C 482.832031 592.398438 474.085938 580.113281 474.085938 580.113281 C 485.421875 583.8125 490.851562 578.550781 490.851562 578.550781 C 483.945312 577.984375 480.542969 572.96875 480.542969 572.96875 C 494.8125 573.351562 502.0625 564.691406 502.0625 564.691406 C 467.667969 570.679688 452.519531 558.054688 452.519531 558.054688 C 479.960938 558.992188 488.453125 544.757812 488.453125 544.757812 C 441.542969 548.324219 437.722656 521.238281 437.722656 521.238281 C 446.738281 530.828125 457.125 530.226562 457.125 530.226562 C 453.648438 529.269531 451.734375 521.859375 451.734375 521.859375 C 465.6875 532.324219 474.96875 527.882812 474.96875 527.882812 C 470.066406 528.210938 462.128906 518.742188 462.128906 518.742188 C 474.011719 522.011719 488.054688 513.046875 488.054688 513.046875 C 482.730469 514.988281 461.070312 511.050781 461.070312 511.050781 C 467.625 509.210938 473.804688 502.773438 473.804688 502.773438 C 457.5 506.65625 438.597656 496.761719 438.597656 496.761719 C 451.21875 497.804688 461.878906 490.933594 464.953125 486.570312 C 436.753906 488 434.390625 474.5625 434.390625 474.5625 C 440.136719 479.730469 452.144531 478.851562 452.144531 478.851562 C 447.15625 477.101562 441.128906 468.265625 441.128906 468.265625 C 449.585938 473.558594 457.507812 469.050781 457.507812 469.050781 C 452.023438 470.140625 437.308594 454.382812 437.308594 454.382812 C 450.699219 463.160156 462.089844 452.058594 462.089844 452.058594 C 436.242188 453.878906 427.410156 416.519531 427.410156 416.519531 C 429.59375 442.21875 394.910156 455.953125 394.910156 455.953125 C 400.90625 461.230469 415.386719 457.796875 415.386719 457.796875 C 413.855469 465.355469 397.582031 472.792969 397.582031 472.792969 C 403.640625 475.960938 416.371094 471.953125 422.277344 469.78125 C 422.125 470.527344 421.953125 471.351562 421.765625 472.269531 C 419.824219 481.683594 389.316406 480.75 389.316406 480.75 C 389.738281 484.914062 405.894531 489.269531 405.894531 489.269531 C 405.558594 492.964844 392.726562 496.085938 392.726562 496.085938 C 398.832031 502.585938 414.167969 499.117188 414.167969 499.117188 C 411.910156 509.652344 374.417969 514.867188 374.417969 514.867188 C 380.566406 520.75 397 517.050781 397 517.050781 C 396.011719 519.949219 386.015625 523.222656 386.015625 523.222656 C 395.757812 526.988281 404.273438 518.074219 404.273438 518.074219 C 402.253906 523.738281 396.960938 527.183594 396.960938 527.183594 C 408.753906 529.363281 423.21875 518.632812 423.21875 518.632812 C 417.472656 533.980469 377.019531 541.941406 377.019531 541.941406 C 395.832031 553.921875 416.503906 542.078125 416.503906 542.078125 C 410.679688 558.414062 363.101562 562.542969 363.101562 562.542969 C 365.949219 568.269531 383.671875 568.679688 383.671875 568.679688 C 377.273438 574.050781 368.53125 578.652344 368.53125 578.652344 C 380.320312 581.316406 391.769531 574.355469 391.769531 574.355469 C 392.609375 576.777344 384.457031 583.4375 384.457031 583.4375 C 390.167969 584.453125 402.625 574.878906 402.625 574.878906 L 395.507812 584.453125 C 407.414062 584.082031 415.148438 577.089844 415.148438 577.089844 C 403.117188 590.585938 389.613281 595.246094 374.394531 597.457031 C 356.875 600 347.996094 599.910156 328.851562 598.5625 C 328.851562 598.5625 334.769531 608.726562 354.011719 609.972656 C 354.011719 609.972656 346.117188 616.429688 333.527344 618.722656 C 333.527344 618.722656 346.550781 625.054688 364.746094 618.4375 C 364.746094 618.4375 358.164062 627.667969 348.929688 627.226562 C 348.929688 627.226562 361.855469 632.835938 379.078125 620.25 C 377.203125 625.523438 377.140625 629.625 367.027344 636.871094 C 367.027344 636.871094 387.679688 636.148438 397.839844 625.1875 C 397.839844 625.1875 391.472656 635.460938 386.296875 641.257812 C 386.296875 641.257812 395.136719 641.507812 410.738281 632.664062 C 403.179688 640.144531 394.355469 647.15625 385.53125 650.363281 C 362.238281 658.820312 336.746094 661.515625 313.015625 653.824219 C 313.015625 653.824219 317.644531 666.085938 329.496094 668.289062 C 325.230469 670.875 321.113281 672.707031 315.785156 673.554688 C 315.785156 673.554688 325.996094 682.832031 350.328125 674.023438 C 350.328125 674.023438 345.789062 681.261719 331.476562 689.972656 C 331.476562 689.972656 353.890625 691.128906 362.675781 680.746094 C 362.675781 680.746094 356.835938 695.003906 350.371094 701.507812 C 360.640625 701.144531 377.488281 695.308594 384.652344 687.664062 C 384.652344 687.664062 383.105469 694.144531 377.09375 700.035156 C 377.09375 700.035156 389.980469 701.328125 397.902344 693.964844 C 402.308594 689.863281 401.828125 690.027344 406.007812 684.957031 C 387.585938 720.28125 344.503906 746.601562 283.1875 749.363281 C 283.1875 749.363281 287.507812 756.496094 293.984375 759.734375 C 298.898438 762.1875 308.105469 761.019531 308.105469 761.019531 C 308.105469 761.019531 294.773438 770.472656 288.152344 774.210938 C 301.785156 777.464844 317.679688 775.878906 321.65625 768.777344 C 321.65625 768.777344 318.074219 780.003906 309.699219 784.882812 C 309.699219 784.882812 335.511719 782.066406 339.253906 768.355469 C 339.253906 768.355469 340.234375 771.355469 337.722656 776.238281 C 336.582031 778.445312 331.425781 786.175781 331.425781 786.175781 C 365.0625 780.835938 371.386719 776.480469 388.695312 763.355469 C 378.503906 776.359375 367.644531 785.6875 351.804688 792.679688 C 323.171875 805.324219 312.519531 814.554688 256.851562 819.304688 " fill-opacity="1" fill-rule="nonzero"/><path fill="#385c05" d="M 422.367188 633.851562 C 420.808594 638.410156 424.460938 650.355469 371.671875 675.648438 C 371.671875 675.648438 379.574219 679.253906 385.335938 673.066406 C 385.359375 672.71875 383.636719 679.925781 380.113281 682.644531 C 380.113281 682.644531 388.335938 679.84375 393.011719 672.445312 C 393.011719 672.445312 394.714844 676.503906 390.191406 680.792969 C 390.191406 680.792969 400.203125 681.488281 406.199219 668.550781 C 406.199219 668.550781 406.683594 671.082031 405.140625 674.339844 C 405.140625 674.339844 414.269531 669.054688 414.988281 660.9375 C 415.324219 662.320312 414.398438 668.613281 413.351562 672.398438 C 415.179688 670.644531 422.957031 657.140625 423.453125 648.535156 C 423.878906 641.035156 422.367188 633.851562 422.367188 633.851562 " fill-opacity="1" fill-rule="nonzero"/><path fill="#91ad51" d="M 431.804688 600.21875 C 429.476562 606.996094 434.914062 624.753906 356.417969 662.367188 C 356.417969 662.367188 368.160156 667.734375 376.726562 658.535156 C 376.769531 658.015625 374.207031 668.726562 368.964844 672.773438 C 368.964844 672.773438 381.183594 668.613281 388.140625 657.609375 C 388.140625 657.609375 390.6875 663.640625 383.960938 670.023438 C 383.960938 670.023438 398.839844 671.058594 407.75 651.816406 C 407.75 651.816406 408.480469 655.582031 406.179688 660.425781 C 406.179688 660.425781 419.757812 652.566406 420.828125 640.496094 C 421.328125 642.554688 419.949219 651.90625 418.390625 657.535156 C 421.101562 654.933594 432.675781 634.855469 433.40625 622.058594 C 434.042969 610.894531 431.804688 600.21875 431.804688 600.21875 " fill-opacity="1" fill-rule="nonzero"/><path fill="#91ad51" d="M 429.851562 679.03125 C 429.851562 679.03125 438.164062 721.007812 517.820312 745.96875 C 517.820312 745.96875 506.453125 756.710938 491.671875 743.832031 C 491.671875 743.832031 493.199219 753.289062 496.859375 755.667969 C 496.859375 755.667969 485.0625 755.554688 478.394531 743.90625 C 478.394531 743.90625 475.917969 751.398438 482.382812 757.6875 C 482.382812 757.6875 468.84375 758.886719 460.320312 737.929688 C 460.320312 737.929688 457.652344 742.492188 459.855469 747.757812 C 459.855469 747.757812 444.527344 746.042969 443.546875 732.113281 C 443.546875 732.113281 440.996094 738.914062 442.421875 743.351562 C 442.421875 743.351562 429.703125 733.105469 428.210938 716.742188 C 428.210938 716.742188 425.988281 717.890625 426.507812 724.871094 C 426.507812 724.871094 416.699219 719.964844 422.507812 696.304688 C 425.367188 684.628906 429.851562 679.03125 429.851562 679.03125 " fill-opacity="1" fill-rule="nonzero"/><path fill="#91ad51" d="M 362.238281 802.496094 C 372.183594 805.257812 389.613281 790.289062 389.613281 790.289062 C 387.191406 792.230469 380.03125 792.480469 376.847656 789.671875 C 395.835938 788.640625 419.378906 742.042969 419.261719 738.507812 C 418.707031 743.753906 419.75 752.472656 419.738281 756.890625 C 419.71875 762.023438 420.460938 773.378906 417.550781 785.023438 C 417.550781 785.023438 417.6875 781.816406 415.21875 778.542969 C 413.199219 792.070312 408.90625 803 405.820312 806.972656 C 407.519531 797.816406 404.835938 795.191406 404.835938 795.191406 C 403.359375 807.46875 385.195312 811.136719 385.195312 811.136719 C 392.5625 806.46875 391.640625 799.921875 391.640625 799.921875 C 384.953125 807.929688 366.351562 806.117188 362.238281 802.496094 " fill-opacity="1" fill-rule="nonzero"/><path fill="#385c05" d="M 441.5 644.5625 C 441.5 644.5625 442.109375 660.835938 462.625 673.675781 C 474.304688 680.984375 486.929688 682.644531 486.929688 682.644531 C 486.929688 682.644531 480.109375 688.0625 471.230469 683.363281 C 471.230469 683.363281 469.421875 686.101562 472.324219 689.136719 C 472.324219 689.136719 455.949219 687.542969 454.503906 676.03125 C 454.042969 676.679688 451.085938 677.835938 451.484375 685.285156 C 451.484375 685.285156 437.253906 662.726562 441.5 644.5625 " fill-opacity="1" fill-rule="nonzero"/><path fill="#91ad51" d="M 440.4375 639.195312 C 440.4375 639.195312 444.59375 654.9375 467.417969 662.976562 C 480.421875 667.558594 493.097656 666.410156 493.097656 666.410156 C 493.097656 666.410156 487.636719 673.1875 477.9375 670.546875 C 477.9375 670.546875 476.769531 673.613281 480.269531 675.945312 C 480.269531 675.945312 463.941406 677.972656 460.015625 667.046875 C 459.710938 667.785156 457.070312 669.566406 459.097656 676.742188 C 459.097656 676.742188 440.265625 657.847656 440.4375 639.195312 " fill-opacity="1" fill-rule="nonzero"/><path fill="#91ad51" d="M 429.660156 492.503906 C 429.660156 492.503906 433.933594 501.8125 446.007812 506.195312 C 446.007812 506.195312 440.078125 507.277344 437.082031 504.132812 C 437.082031 504.132812 437.484375 506.085938 439.839844 507.601562 C 439.839844 507.601562 436.328125 507.527344 434.074219 503.898438 C 434.074219 503.898438 433.472656 504.953125 433.582031 506.199219 C 433.582031 506.199219 428.589844 497.914062 429.660156 492.503906 " fill-opacity="1" fill-rule="nonzero"/><path fill="#91ad51" d="M 421.285156 535.8125 C 423.21875 535.128906 428.492188 526.195312 428.773438 524.371094 C 428.773438 524.371094 437.058594 536.707031 442.785156 539.925781 C 448.515625 543.144531 459.558594 546.398438 461.894531 546.222656 C 461.894531 546.222656 456.296875 547.234375 449.226562 544.878906 C 449.226562 544.878906 451.46875 548.699219 455.742188 551.171875 C 455.742188 551.171875 449.105469 550.433594 443.304688 545.882812 C 443.304688 545.882812 444.632812 549.570312 448.003906 550.746094 C 448.003906 550.746094 442.550781 551.03125 437.777344 544.832031 C 437.777344 544.832031 437.039062 548.816406 439.335938 551.75 C 439.335938 551.75 432.710938 550.238281 432.015625 543.949219 C 432.015625 543.949219 428.503906 546.101562 429.710938 548.574219 C 429.710938 548.574219 426.660156 547.40625 426.910156 541.910156 C 426.910156 541.910156 425.886719 542.820312 424.851562 545.589844 C 424.320312 542.917969 424.003906 540.710938 424.871094 535.878906 C 423.601562 537.515625 421.285156 535.8125 421.285156 535.8125 " fill-opacity="1" fill-rule="nonzero"/><path fill="#91ad51" d="M 420.351562 585.089844 C 416.851562 591.335938 406.941406 592.023438 406.941406 592.023438 C 424.445312 580.09375 427.46875 563.488281 427.46875 563.488281 C 428.375 566.675781 428.796875 572.191406 433.519531 575.882812 C 433.519531 575.882812 430.511719 576.03125 429.007812 573.855469 C 429.003906 573.90625 429.003906 573.953125 429.003906 574.003906 C 429.253906 575.136719 430.539062 580.453125 432.648438 582.074219 C 432.648438 582.074219 431.109375 582.347656 428.953125 578.757812 C 428.828125 578.542969 428.71875 578.324219 428.625 578.085938 C 427.96875 583.035156 426.789062 586.964844 426.789062 586.964844 C 426.457031 584.925781 425.066406 583.492188 425.066406 583.492188 C 422.941406 590.203125 417.371094 591.75 417.371094 591.75 C 420.503906 588.375 420.351562 585.089844 420.351562 585.089844 " fill-opacity="1" fill-rule="nonzero"/><path fill="#385c05" d="M 401.816406 718.238281 C 400.347656 719.953125 398.878906 721.664062 397.292969 723.269531 C 392.695312 727.933594 387.132812 731.632812 381.054688 734.078125 C 386.949219 734.605469 392.9375 733.90625 398.550781 732.039062 C 393.527344 738.058594 389.457031 744.867188 386.523438 752.140625 C 388.769531 751.4375 390.699219 749.996094 392.585938 748.578125 C 397.796875 744.660156 403.292969 740.371094 405.363281 734.1875 C 405.558594 737.1875 406.671875 740.121094 408.523438 742.492188 C 408.78125 732.679688 410.027344 721.230469 407.988281 711.617188 C 405.65625 713.179688 403.734375 716.003906 401.816406 718.238281 " fill-opacity="1" fill-rule="nonzero"/><path fill="#385c05" d="M 444.796875 608.695312 C 445.671875 609.710938 446.542969 610.734375 447.484375 611.691406 C 450.226562 614.464844 453.542969 616.671875 457.160156 618.128906 C 453.652344 618.445312 450.078125 618.03125 446.738281 616.910156 C 449.734375 620.5 452.15625 624.554688 453.902344 628.886719 C 452.570312 628.46875 451.417969 627.609375 450.292969 626.769531 C 447.1875 624.433594 443.914062 621.875 442.683594 618.195312 C 442.566406 619.984375 441.902344 621.730469 440.800781 623.140625 C 440.644531 617.292969 439.90625 610.480469 441.117188 604.753906 C 442.507812 605.675781 443.652344 607.363281 444.796875 608.695312 " fill-opacity="1" fill-rule="nonzero"/><path fill="#4b7b07" d="M 93.433594 798.515625 C 165.527344 781.332031 168.691406 760.660156 168.691406 760.660156 C 118.253906 765.050781 99.484375 743.085938 99.484375 743.085938 C 186.109375 746.441406 192.433594 695.710938 192.433594 695.710938 C 170.949219 728.011719 154.441406 717.160156 154.441406 717.160156 C 160.769531 714.828125 163.710938 699.070312 163.710938 699.070312 C 138.832031 722.328125 121.414062 713.796875 121.414062 713.796875 C 130.460938 714.058594 136.796875 695.191406 136.796875 695.191406 C 111.234375 708.113281 85.675781 685.117188 85.675781 685.117188 C 95.628906 688.730469 129.785156 675.292969 129.785156 675.292969 C 122.546875 674.515625 121.644531 658.492188 121.644531 658.492188 C 151.949219 665.210938 173.332031 645.785156 173.332031 645.785156 C 150.03125 648.109375 130.921875 624.460938 130.921875 624.460938 C 182.941406 624.980469 191.984375 598.023438 191.984375 598.023438 C 181.804688 609.390625 158.96875 602.496094 158.96875 602.496094 C 168.015625 598.363281 179.089844 585.359375 179.089844 585.359375 C 163.9375 597.25 148.109375 579.753906 148.109375 579.753906 C 158.285156 581.566406 177.054688 562.875 177.054688 562.875 C 163.4375 568.972656 147.882812 555.460938 147.882812 555.460938 C 170.207031 546.230469 183.039062 529.25 190.425781 513.285156 C 188.320312 514.648438 186.425781 515.808594 185.371094 516.308594 C 181.304688 518.25 175.703125 518.25 175.703125 518.25 C 190.855469 499.640625 199.226562 453.125 199.226562 453.125 C 198.386719 474.082031 217.097656 508.300781 222.75 513.082031 C 218.277344 512.882812 212.632812 511.019531 208.214844 509.273438 C 224.503906 539.914062 260.320312 554.109375 260.320312 554.109375 C 249.683594 565.738281 225.6875 561.066406 225.6875 561.066406 C 229.078125 576.832031 259.609375 591.042969 259.609375 591.042969 C 248.703125 598.246094 224.960938 590.933594 213.917969 586.886719 C 233.496094 605.597656 275.441406 607.066406 275.441406 607.066406 C 274.992188 615.851562 245.585938 626.445312 245.585938 626.445312 C 246.496094 634.207031 270.351562 639.628906 270.351562 639.628906 C 259.609375 653.84375 231.109375 647.898438 231.109375 647.898438 C 236.089844 669.867188 320.90625 663.921875 320.90625 663.921875 C 310.046875 676.84375 274.085938 679.425781 274.085938 679.425781 C 274.992188 690.800781 293.992188 702.429688 293.992188 702.429688 C 276.347656 711.214844 250.785156 686.921875 250.785156 686.921875 C 246.261719 694.15625 267.527344 709.664062 267.527344 709.664062 C 255.765625 718.195312 215.957031 689.765625 215.957031 689.765625 C 227.71875 721.546875 302.8125 734.730469 302.8125 734.730469 C 269.109375 761.609375 222.289062 734.730469 222.289062 734.730469 C 234.277344 768.585938 326.789062 776.597656 326.789062 776.597656 C 316.382812 797.785156 292.632812 791.585938 292.632812 791.585938 C 291.503906 800.371094 309.371094 815.105469 309.371094 815.105469 C 298.742188 816.65625 278.15625 804.246094 278.15625 804.246094 C 276.800781 809.414062 283.355469 824.917969 283.355469 824.917969 C 277.933594 824.664062 260.964844 804.246094 260.964844 804.246094 L 264.132812 825.4375 C 246.945312 819.753906 228.851562 797.011719 228.851562 797.011719 C 227.496094 812 252.824219 841.460938 252.824219 841.460938 C 227.945312 836.808594 213.925781 815.105469 213.925781 815.105469 L 213.925781 836.292969 L 204.644531 836.546875 L 205.527344 798.527344 C 203.832031 806.574219 202.261719 813.746094 199.222656 818.464844 C 188.453125 835.167969 156.027344 832.503906 156.027344 832.503906 C 172.539062 829.652344 177.402344 805.496094 177.402344 805.496094 C 158.851562 822.289062 145.507812 822.546875 145.507812 822.546875 C 150.597656 816.34375 147.378906 812.085938 147.378906 812.085938 C 130.921875 826.234375 117.691406 822.164062 117.691406 822.164062 C 130.355469 816.800781 133.746094 813.570312 136.238281 809.5 C 109.996094 811.570312 93.433594 798.515625 93.433594 798.515625 " fill-opacity="1" fill-rule="nonzero"/><path fill="#385c05" d="M 210.285156 580.421875 C 212.65625 585.21875 215.007812 589.144531 218.394531 593.007812 C 225.332031 600.941406 232.167969 609.074219 242.78125 614.933594 C 237.1875 614.210938 227.011719 611.707031 223.800781 606.847656 C 223.261719 611.660156 226.707031 616.617188 229.691406 620.441406 C 219.574219 615.851562 215.039062 608.3125 213.457031 599.53125 C 211.332031 604.246094 211.726562 609.425781 211.554688 614.648438 C 208.421875 611.359375 206.929688 606.625 206.605469 603.292969 C 205.894531 596.03125 206.253906 592.144531 207.117188 584.902344 C 205.992188 588.515625 202.882812 591.371094 199.320312 592.066406 C 204.066406 591.140625 205.449219 566.378906 205.664062 562.40625 C 206.464844 567.308594 207.402344 574.605469 210.285156 580.421875 " fill-opacity="1" fill-rule="nonzero"/><path fill="#385c05" d="M 177.632812 763.269531 C 175.261719 768.070312 172.910156 771.988281 169.523438 775.859375 C 162.578125 783.796875 155.75 791.917969 145.132812 797.785156 C 150.730469 797.054688 160.90625 794.554688 164.121094 789.699219 C 164.65625 794.511719 161.210938 799.464844 158.226562 803.285156 C 168.34375 798.703125 172.878906 791.164062 174.457031 782.378906 C 176.585938 787.097656 176.191406 792.277344 176.363281 797.492188 C 179.496094 794.214844 180.984375 789.472656 181.3125 786.136719 C 182.019531 778.882812 181.664062 774.996094 180.792969 767.753906 C 181.925781 771.367188 185.03125 774.214844 188.597656 774.917969 C 183.84375 773.984375 182.46875 749.230469 182.25 745.257812 C 181.453125 750.160156 180.515625 757.453125 177.632812 763.269531 " fill-opacity="1" fill-rule="nonzero"/><path fill="#91ad51" d="M 163.941406 670.144531 C 157.671875 674.648438 151.402344 679.152344 145.132812 683.660156 C 153.433594 683.972656 170.492188 675.878906 176.53125 669.894531 C 177.652344 675.292969 172.945312 680.53125 169.300781 684.511719 C 177.628906 682.394531 181.5625 680.113281 186.085938 675.59375 C 192.179688 669.5 193.558594 665.40625 195.101562 659.019531 C 195.734375 665.570312 196.164062 669.21875 196.824219 674.582031 C 202.351562 665.394531 204.632812 661.414062 202.527344 650.777344 C 205.742188 654.796875 204.902344 653.171875 210.691406 657.988281 C 208.183594 648.597656 207.953125 643.90625 205.152344 638.527344 C 202.046875 632.582031 196.757812 628.742188 196.757812 628.742188 C 196.015625 636.203125 189.488281 648.707031 183.972656 653.875 C 177.488281 659.941406 171.066406 665.050781 163.941406 670.144531 " fill-opacity="1" fill-rule="nonzero"/><path fill="#91ad51" d="M 191.890625 543.363281 C 186.710938 548.945312 182.570312 551.664062 175.242188 552.9375 C 181.9375 555.078125 189.4375 551.257812 192.789062 549.273438 C 192.597656 555.460938 186.015625 559.652344 181.738281 568.375 C 183.480469 567.207031 185.214844 566.042969 186.949219 564.875 C 190.359375 562.582031 193.820312 560.246094 196.445312 557.007812 C 199.070312 553.769531 200.761719 549.4375 200 545.269531 C 202.144531 546.285156 204.21875 552.097656 204.21875 552.097656 C 204.21875 552.097656 205.152344 547.867188 204 541.03125 C 203.125 535.84375 202.617188 532.015625 201.457031 525.289062 C 199.582031 533.105469 198.101562 536.683594 191.890625 543.363281 " fill-opacity="1" fill-rule="nonzero"/><path fill="#385c05" d="M 203.289062 719.613281 C 203.210938 726.070312 193.726562 739.894531 246.105469 793.320312 C 246.105469 793.320312 235.105469 794.785156 230.855469 784.566406 C 230.96875 784.117188 229.949219 794.019531 233.011719 798.90625 C 233.011719 798.90625 224.363281 792.039062 221.929688 780.714844 C 221.929688 780.714844 218.148438 785.21875 221.730469 792.519531 C 221.730469 792.519531 209.445312 789.410156 207.804688 770.460938 C 207.804688 770.460938 206.136719 773.511719 206.59375 778.292969 C 206.59375 778.292969 197.925781 767.886719 200.535156 757.214844 C 199.542969 758.851562 197.957031 767.265625 197.597656 772.53125 C 196.160156 769.5625 192.617188 749.183594 195.710938 737.980469 C 198.414062 728.199219 203.289062 719.613281 203.289062 719.613281 " fill-opacity="1" fill-rule="nonzero"/></svg>