<svg xmlns="http://www.w3.org/2000/svg" xmlns:xlink="http://www.w3.org/1999/xlink" width="2000" zoomAndPan="magnify" viewBox="0 0 1500 1499.999933" height="2000" preserveAspectRatio="xMidYMid meet" version="1.0"><defs><clipPath id="ab46de6bd6"><path d="M 1025 696 L 1287.902344 696 L 1287.902344 730 L 1025 730 Z M 1025 696 " clip-rule="nonzero"/></clipPath><clipPath id="ed94c8e8e6"><path d="M 363.902344 706 L 612 706 L 612 744 L 363.902344 744 Z M 363.902344 706 " clip-rule="nonzero"/></clipPath></defs><path fill="#fe854f" d="M 1100.394531 1197.035156 C 1090.492188 1197.035156 1081.101562 1194.582031 1073.316406 1189.925781 C 1060.203125 1181.96875 1052.078125 1167.242188 1053.261719 1153.105469 C 1054.785156 1133.722656 1072.21875 1122.382812 1088.546875 1121.199219 C 1093.285156 1120.945312 1097.261719 1124.414062 1097.601562 1129.070312 C 1097.941406 1133.722656 1094.386719 1137.789062 1089.734375 1138.125 C 1080.59375 1138.804688 1070.863281 1144.644531 1070.101562 1154.460938 C 1069.507812 1162.25 1074.417969 1170.882812 1082.03125 1175.453125 C 1089.394531 1179.855469 1099.464844 1181.292969 1109.703125 1179.261719 C 1114.777344 1178.246094 1121.71875 1176.046875 1126.457031 1171.136719 C 1131.703125 1165.632812 1134.410156 1156.578125 1134.410156 1144.21875 C 1134.410156 1125.007812 1127.472656 1100.121094 1108.347656 1087.847656 C 1095.234375 1079.46875 1077.039062 1077.859375 1059.609375 1083.53125 C 1040.316406 1089.796875 1017.046875 1105.625 990.5625 1130.507812 C 987.179688 1133.722656 981.847656 1133.554688 978.632812 1130.167969 C 975.417969 1126.785156 975.585938 1121.367188 978.972656 1118.234375 C 1007.316406 1091.65625 1032.703125 1074.558594 1054.363281 1067.535156 C 1076.53125 1060.339844 1100.140625 1062.625 1117.402344 1073.628906 C 1138.554688 1087.085938 1151.246094 1113.496094 1151.332031 1144.21875 C 1151.332031 1161.0625 1147.101562 1174.097656 1138.726562 1182.902344 C 1132.546875 1189.335938 1123.664062 1193.820312 1113 1195.9375 C 1108.769531 1196.78125 1104.539062 1197.207031 1100.394531 1197.207031 Z M 1100.394531 1197.035156 " fill-opacity="1" fill-rule="nonzero"/><path fill="#fe854f" d="M 700.925781 1220.734375 C 701.433594 1216.25 702.363281 1211.765625 703.886719 1207.277344 C 704.816406 1204.484375 706.171875 1201.691406 708.625 1200.167969 C 711.753906 1198.304688 766.5 1202.199219 769.378906 1203.554688 C 783.339844 1210.410156 781.140625 1280.15625 771.324219 1289.636719 C 758.210938 1302.332031 724.617188 1300.636719 709.132812 1292.9375 C 693.226562 1285.0625 700.164062 1226.578125 700.839844 1220.734375 Z M 700.925781 1220.734375 " fill-opacity="1" fill-rule="nonzero"/><path fill="#fe854f" d="M 932.515625 1220.734375 C 932.007812 1216.25 931.078125 1211.765625 929.554688 1207.277344 C 928.625 1204.484375 927.269531 1201.691406 924.816406 1200.167969 C 921.6875 1198.304688 866.941406 1202.199219 864.0625 1203.554688 C 850.101562 1210.410156 852.300781 1280.15625 862.117188 1289.636719 C 875.234375 1302.332031 908.824219 1300.636719 924.308594 1292.9375 C 940.21875 1285.0625 933.277344 1226.578125 932.601562 1220.734375 Z M 932.515625 1220.734375 " fill-opacity="1" fill-rule="nonzero"/><path fill="#febb7d" d="M 991.410156 1108.925781 C 990.902344 1151.074219 984.980469 1200.675781 940.21875 1217.097656 C 925.15625 1222.597656 909.246094 1227.675781 892.832031 1231.738281 C 868.039062 1238.003906 842.402344 1242.066406 817.863281 1242.234375 C 793.664062 1242.066406 769.039062 1238.597656 745.347656 1233.769531 C 743.992188 1233.515625 742.726562 1233.261719 741.371094 1232.925781 C 719.539062 1228.523438 696.777344 1223.105469 678.164062 1210.410156 C 659.210938 1197.542969 651.339844 1177.992188 645.839844 1156.578125 C 635.261719 1114.679688 631.710938 1042.058594 636.617188 999.058594 L 985.316406 1007.523438 C 989.378906 1035.453125 991.746094 1080.652344 991.410156 1108.925781 Z M 991.410156 1108.925781 " fill-opacity="1" fill-rule="nonzero"/><path fill="#fe854f" d="M 901.125 1011.332031 C 901.125 1020.898438 892.746094 1131.523438 906.539062 1229.878906 C 907.132812 1259.164062 924.902344 1294.289062 956.71875 1297.253906 C 971.777344 1298.605469 987.261719 1292.511719 997.332031 1281.253906 C 1029.0625 1245.707031 1010.195312 1178.078125 1004.523438 1136.179688 C 999.53125 1099.191406 994.457031 1045.867188 988.277344 1009.046875 L 901.039062 1011.332031 Z M 901.125 1011.332031 " fill-opacity="1" fill-rule="nonzero"/><path fill="#febb7d" d="M 694.578125 465.222656 C 706.425781 431.875 719.203125 391.328125 731.472656 358.148438 C 740.777344 332.84375 748.5625 303.640625 763.710938 281.042969 C 770.988281 270.207031 780.886719 255.054688 794.085938 267.246094 C 806.523438 278.671875 807.792969 298.5625 810.925781 314.136719 C 816.59375 342.320312 820.488281 370.847656 824.210938 399.285156 C 827.933594 427.808594 831.910156 473.601562 833.261719 483.589844 C 833.261719 483.589844 694.578125 465.222656 694.578125 465.222656 Z M 694.578125 465.222656 " fill-opacity="1" fill-rule="nonzero"/><path fill="#febb7d" d="M 886.65625 486.128906 C 889.703125 486.550781 919.738281 390.144531 922.703125 381.933594 C 931.585938 357.8125 939.285156 331.65625 951.808594 309.058594 C 955.957031 301.609375 965.433594 284.851562 975.078125 284.003906 C 996.402344 282.058594 1000.464844 324.039062 1003.171875 337.582031 C 1008.671875 365.261719 1012.5625 393.277344 1016.203125 421.292969 C 1019.925781 449.816406 1024.070312 494.507812 1025.339844 504.496094 C 1025.339844 504.496094 886.910156 486.214844 886.65625 486.128906 Z M 886.65625 486.128906 " fill-opacity="1" fill-rule="nonzero"/><path fill="#fe854f" d="M 728.253906 470.808594 C 737.394531 446.347656 756.601562 382.695312 769.800781 368.644531 C 772.339844 365.9375 776.910156 366.53125 778.433594 370 C 787.65625 390.398438 799.246094 480.203125 799.246094 480.203125 Z M 728.253906 470.808594 " fill-opacity="1" fill-rule="nonzero"/><path fill="#fe854f" d="M 917.539062 493.578125 C 921.347656 483.929688 932.261719 450.070312 937.933594 435.851562 C 946.5625 414.351562 957.734375 394.121094 963.148438 390.566406 C 965.855469 388.960938 970.761719 389.804688 973.046875 392.089844 C 977.53125 397.253906 983.625 420.109375 987.09375 443.46875 C 990.902344 469.371094 993.523438 503.648438 993.523438 503.648438 L 917.625 493.578125 Z M 917.539062 493.578125 " fill-opacity="1" fill-rule="nonzero"/><path fill="#fe854f" d="M 1155.648438 947.933594 C 1166.308594 922.289062 1176.292969 857.621094 1180.777344 827.742188 C 1184.078125 805.820312 1188.648438 775.941406 1189.832031 767.902344 C 1192.710938 723.886719 1198.378906 635.605469 1196.769531 616.730469 C 1195.332031 602.003906 1188.648438 575.425781 1183.316406 563.574219 C 1177.816406 551.640625 1163.6875 531.835938 1155.902344 524.386719 C 1148.117188 517.277344 1131.53125 505.679688 1121.800781 500.6875 C 1102.171875 490.867188 1058.933594 480.203125 1023.816406 476.394531 C 967.125 470.046875 853.570312 457.179688 796.878906 450.664062 C 688.910156 437.96875 656.332031 435.429688 632.640625 438.390625 C 620.964844 439.914062 599.554688 445.5 589.824219 449.5625 C 580.6875 453.457031 566.554688 461.921875 563.085938 464.628906 C 552.847656 472.5 535.417969 492.136719 528.308594 503.902344 C 521.285156 515.753906 510.203125 543.429688 506.308594 559.089844 C 503.601562 570.433594 485.238281 686.730469 483.125 699.851562 C 480.417969 745.21875 474.917969 836.292969 476.441406 855.761719 C 476.695312 858.554688 477.117188 861.9375 477.710938 865.410156 C 542.695312 836.632812 689.078125 781.019531 824.464844 794.226562 C 954.261719 806.835938 1089.5625 897.742188 1155.648438 948.019531 Z M 1155.648438 947.933594 " fill-opacity="1" fill-rule="nonzero"/><path fill="#f9c59b" d="M 824.464844 794.140625 C 689.078125 780.9375 542.695312 836.546875 477.710938 865.324219 C 480.164062 880.730469 485.070312 900.789062 489.21875 910.863281 C 494.378906 923.21875 507.917969 944.125 515.617188 952.082031 C 523.234375 959.871094 539.984375 972.566406 549.886719 977.984375 C 559.785156 983.398438 582.125 992.035156 594.5625 995.335938 C 620.371094 1002.019531 880.5625 1032.238281 938.777344 1038.332031 C 982.695312 1042.566406 1024.664062 1042.820312 1048.101562 1037.996094 C 1059.777344 1035.539062 1081.015625 1027.921875 1090.578125 1022.929688 C 1100.984375 1017.339844 1118.671875 1003.714844 1127.386719 993.980469 C 1136.015625 984.246094 1150.148438 961.308594 1155.816406 948.019531 C 1089.734375 897.742188 954.433594 806.835938 824.632812 794.226562 Z M 824.464844 794.140625 " fill-opacity="1" fill-rule="nonzero"/><g clip-path="url(#ab46de6bd6)"><path fill="#000000" d="M 1284.09375 707.46875 C 1199.226562 689.269531 1110.800781 694.007812 1028.472656 721.347656 C 1026.269531 722.109375 1025.085938 724.480469 1025.761719 726.679688 C 1026.355469 728.457031 1027.964844 729.558594 1029.738281 729.558594 C 1030.164062 729.558594 1030.585938 729.558594 1031.09375 729.304688 C 1112.070312 702.472656 1198.886719 697.734375 1282.316406 715.675781 C 1284.601562 716.101562 1286.886719 714.746094 1287.308594 712.460938 C 1287.816406 710.175781 1286.378906 707.890625 1284.09375 707.46875 Z M 1284.09375 707.46875 " fill-opacity="1" fill-rule="nonzero"/></g><path fill="#000000" d="M 1267.425781 794.902344 C 1199.140625 778.480469 1126.117188 771.710938 1030.5 772.8125 C 1028.132812 772.8125 1026.269531 774.757812 1026.355469 777.128906 C 1026.355469 779.496094 1028.300781 781.613281 1030.671875 781.273438 C 1125.441406 780.175781 1197.957031 786.945312 1265.5625 803.113281 C 1265.902344 803.113281 1266.238281 803.199219 1266.578125 803.199219 C 1268.523438 803.199219 1270.21875 801.929688 1270.726562 799.980469 C 1271.234375 797.695312 1269.878906 795.410156 1267.59375 794.902344 Z M 1267.425781 794.902344 " fill-opacity="1" fill-rule="nonzero"/><path fill="#000000" d="M 1263.109375 893.085938 C 1189.070312 857.875 1110.125 836.96875 1028.386719 830.875 C 1026.101562 830.621094 1023.984375 832.484375 1023.816406 834.769531 C 1023.648438 837.140625 1025.425781 839.171875 1027.710938 839.339844 C 1108.347656 845.347656 1186.363281 866 1259.386719 900.789062 C 1259.980469 901.042969 1260.570312 901.214844 1261.164062 901.214844 C 1262.769531 901.214844 1264.292969 900.28125 1264.972656 898.757812 C 1265.984375 896.640625 1265.054688 894.101562 1262.941406 893.085938 Z M 1263.109375 893.085938 " fill-opacity="1" fill-rule="nonzero"/><path fill="#000000" d="M 619.863281 669.378906 C 545.316406 642.292969 466.371094 623.757812 378.371094 612.753906 C 376.085938 612.414062 373.972656 614.105469 373.632812 616.394531 C 373.378906 618.679688 374.984375 620.792969 377.269531 621.132812 C 464.59375 632.050781 543.03125 650.417969 616.902344 677.335938 C 617.410156 677.503906 617.832031 677.589844 618.339844 677.589844 C 620.03125 677.589844 621.726562 676.488281 622.316406 674.796875 C 623.078125 672.59375 621.980469 670.140625 619.777344 669.378906 Z M 619.863281 669.378906 " fill-opacity="1" fill-rule="nonzero"/><g clip-path="url(#ed94c8e8e6)"><path fill="#000000" d="M 607.933594 735.316406 C 518.070312 714.070312 441.832031 705.011719 368.046875 706.707031 C 365.679688 706.707031 363.902344 708.738281 363.902344 711.023438 C 363.902344 713.390625 365.679688 715.507812 368.21875 715.167969 C 441.238281 713.476562 516.800781 722.535156 605.984375 743.523438 C 606.324219 743.523438 606.664062 743.609375 607 743.609375 C 608.949219 743.609375 610.640625 742.253906 611.148438 740.394531 C 611.65625 738.109375 610.300781 735.824219 608.015625 735.316406 Z M 607.933594 735.316406 " fill-opacity="1" fill-rule="nonzero"/></g><path fill="#000000" d="M 606.324219 802.691406 C 519.425781 799.980469 442 803.875 369.570312 814.539062 C 367.285156 814.878906 365.679688 816.992188 366.015625 819.363281 C 366.355469 821.480469 368.132812 823.003906 370.164062 823.003906 C 370.332031 823.003906 370.585938 823.003906 370.753906 823.003906 C 442.679688 812.339844 519.59375 808.53125 605.984375 811.238281 C 608.269531 811.238281 610.300781 809.460938 610.386719 807.175781 C 610.386719 804.804688 608.609375 802.859375 606.324219 802.773438 Z M 606.324219 802.691406 " fill-opacity="1" fill-rule="nonzero"/><path fill="#fe854f" d="M 671.5625 1020.304688 C 673 1007.269531 598.203125 1004.984375 562.746094 953.859375 C 553.949219 941.164062 560.632812 923.304688 561.5625 908.070312 C 563.253906 881.320312 558.179688 851.613281 537.957031 831.46875 C 517.734375 811.324219 489.980469 813.101562 469.078125 824.613281 C 447.332031 836.546875 430.746094 855.929688 420.507812 880.136719 C 399.523438 929.652344 412.980469 995.757812 450.378906 1038.585938 C 475.847656 1067.703125 511.386719 1082.515625 548.871094 1088.609375 C 567.824219 1091.742188 645.246094 1103.167969 651.59375 1095.296875 C 653.371094 1093.179688 661.15625 1069.398438 663.1875 1062.539062 C 665.472656 1055.007812 668.601562 1044.679688 671.308594 1020.21875 Z M 671.5625 1020.304688 " fill-opacity="1" fill-rule="nonzero"/><path fill="#231f20" d="M 1136.695312 189.035156 C 1129.164062 201.394531 1112.746094 207.234375 1098.617188 205.371094 C 1092.523438 204.609375 1089.140625 202.324219 1085.839844 197.246094 C 1086.855469 198.769531 1084.910156 195.300781 1084.65625 194.792969 C 1083.808594 192.929688 1083.472656 191.828125 1083.300781 191.234375 C 1082.285156 187.425781 1081.863281 183.195312 1081.777344 179.300781 C 1081.777344 180.65625 1081.863281 176.675781 1081.949219 176 C 1082.117188 174.054688 1082.285156 172.105469 1082.539062 170.246094 C 1082.964844 166.945312 1084.0625 161.867188 1084.402344 160.425781 C 1085.417969 156.871094 1086.6875 153.484375 1088.210938 150.101562 C 1089.054688 148.238281 1089.902344 146.460938 1090.832031 144.683594 C 1089.648438 146.800781 1092.1875 142.566406 1092.609375 141.972656 C 1102.847656 127.417969 1119.007812 116.414062 1136.609375 113.113281 C 1173.417969 106.171875 1200.15625 135.542969 1206.332031 169.738281 C 1209.292969 186.15625 1208.617188 204.695312 1199.226562 219.167969 C 1189.832031 233.640625 1174.515625 238.042969 1159.457031 241.597656 C 1140.164062 246.167969 1122.054688 252.6875 1112.664062 271.644531 C 1106.910156 283.242188 1106.65625 297.292969 1105.132812 309.902344 C 1103.269531 324.96875 1101.410156 339.953125 1099.546875 355.019531 C 1096.925781 376.007812 1129.5 380.328125 1132.125 359.335938 C 1134.070312 343.761719 1135.933594 328.1875 1137.878906 312.613281 C 1138.726562 305.671875 1139.316406 298.5625 1140.5 291.621094 C 1141.179688 287.472656 1142.109375 285.105469 1144.476562 282.394531 C 1145.492188 281.125 1148.03125 279.433594 1149.300781 278.925781 C 1151.078125 278.164062 1152.855469 277.402344 1154.632812 276.722656 C 1155.730469 276.386719 1156.746094 276.046875 1157.847656 275.707031 C 1160.554688 274.863281 1155.984375 276.214844 1158.777344 275.453125 C 1168.339844 272.914062 1178.070312 271.222656 1187.464844 267.921875 C 1238.316406 250.316406 1249.402344 190.644531 1233.492188 144.9375 C 1225.625 122.253906 1210.308594 102.023438 1189.410156 89.917969 C 1167.410156 77.308594 1141.601562 76.628906 1117.824219 84.332031 C 1073.992188 98.554688 1045.308594 141.804688 1049.371094 187.597656 C 1051.570312 212.734375 1067.816406 233.386719 1093.203125 237.789062 C 1118.585938 242.191406 1149.21875 231.101562 1162.5 209.179688 C 1167.070312 201.648438 1167.15625 191.996094 1159.625 186.15625 C 1153.277344 181.164062 1141.261719 181.417969 1136.609375 189.035156 Z M 1136.695312 189.035156 " fill-opacity="1" fill-rule="nonzero"/><path fill="#231f20" d="M 1104.03125 445.753906 C 1125.015625 448.546875 1129.332031 415.960938 1108.347656 413.167969 C 1087.363281 410.375 1083.046875 442.960938 1104.03125 445.753906 Z M 1104.03125 445.753906 " fill-opacity="1" fill-rule="nonzero"/><path fill="#000000" d="M 779.617188 766.886719 C 779.195312 766.886719 778.6875 766.886719 778.261719 766.886719 C 774.371094 766.292969 771.410156 764.347656 769.464844 761.300781 C 763.285156 752.160156 766.417969 730.152344 767.261719 726.425781 C 767.347656 726.003906 772.847656 705.519531 785.710938 706.875 C 785.964844 706.875 786.132812 706.875 786.386719 706.875 C 789.769531 707.46875 792.734375 709.414062 794.761719 712.375 C 800.941406 721.601562 797.808594 743.523438 797.046875 747.25 C 796.964844 747.671875 791.886719 766.800781 779.785156 766.800781 Z M 779.617188 766.886719 " fill-opacity="1" fill-rule="nonzero"/><path fill="#000000" d="M 854.753906 774.082031 C 854.753906 774.082031 853.992188 774.082031 853.570312 774.082031 C 849.59375 773.488281 846.632812 771.542969 844.601562 768.496094 C 838.425781 759.351562 841.554688 737.347656 842.402344 733.621094 C 842.484375 733.199219 847.984375 712.714844 860.847656 714.070312 C 861.101562 714.070312 861.269531 714.070312 861.523438 714.070312 C 864.910156 714.660156 867.871094 716.609375 869.902344 719.570312 C 876.078125 728.710938 872.949219 750.71875 872.1875 754.445312 C 872.101562 754.867188 867.023438 773.996094 854.839844 773.996094 Z M 854.753906 774.082031 " fill-opacity="1" fill-rule="nonzero"/><path fill="#f06a8a" d="M 811.402344 823.390625 C 813.027344 823.605469 814.648438 823.851562 816.257812 824.128906 C 817.867188 824.410156 819.460938 824.71875 821.039062 825.058594 C 822.617188 825.398438 824.171875 825.765625 825.703125 826.164062 C 827.234375 826.5625 828.734375 826.988281 830.203125 827.441406 C 831.671875 827.894531 833.101562 828.371094 834.496094 828.871094 C 835.890625 829.375 837.238281 829.898438 838.542969 830.445312 C 839.84375 830.992188 841.097656 831.558594 842.300781 832.144531 C 843.5 832.730469 844.648438 833.335938 845.734375 833.953125 C 846.824219 834.574219 847.847656 835.210938 848.8125 835.859375 C 849.777344 836.507812 850.675781 837.164062 851.503906 837.835938 C 852.335938 838.507812 853.097656 839.183594 853.785156 839.871094 C 854.476562 840.554688 855.089844 841.246094 855.632812 841.9375 C 856.175781 842.632812 856.640625 843.328125 857.027344 844.023438 C 857.417969 844.722656 857.726562 845.414062 857.957031 846.105469 C 858.1875 846.796875 858.339844 847.484375 858.414062 848.164062 C 858.484375 848.84375 858.476562 849.515625 858.390625 850.179688 C 858.304688 850.839844 858.136719 851.492188 857.890625 852.128906 C 857.644531 852.765625 857.316406 853.390625 856.914062 853.996094 C 856.511719 854.605469 856.03125 855.195312 855.476562 855.765625 C 854.921875 856.335938 854.289062 856.886719 853.585938 857.417969 C 852.882812 857.945312 852.109375 858.453125 851.265625 858.933594 C 850.421875 859.417969 849.511719 859.875 848.535156 860.304688 C 847.558594 860.738281 846.523438 861.140625 845.421875 861.515625 C 844.324219 861.890625 843.167969 862.238281 841.957031 862.554688 C 840.742188 862.871094 839.480469 863.15625 838.167969 863.410156 C 836.855469 863.664062 835.5 863.886719 834.097656 864.074219 C 832.695312 864.261719 831.257812 864.417969 829.78125 864.542969 C 828.308594 864.664062 826.800781 864.753906 825.265625 864.808594 C 823.730469 864.863281 822.171875 864.882812 820.589844 864.871094 C 819.007812 864.855469 817.410156 864.808594 815.796875 864.726562 C 814.183594 864.644531 812.566406 864.53125 810.9375 864.378906 C 809.3125 864.230469 807.683594 864.050781 806.058594 863.835938 C 804.429688 863.621094 802.8125 863.371094 801.203125 863.09375 C 799.59375 862.8125 798 862.503906 796.421875 862.164062 C 794.84375 861.824219 793.289062 861.457031 791.757812 861.058594 C 790.226562 860.660156 788.726562 860.234375 787.257812 859.78125 C 785.789062 859.328125 784.355469 858.851562 782.964844 858.351562 C 781.570312 857.847656 780.222656 857.324219 778.917969 856.777344 C 777.613281 856.230469 776.363281 855.664062 775.160156 855.078125 C 773.957031 854.492188 772.8125 853.886719 771.726562 853.269531 C 770.636719 852.648438 769.609375 852.011719 768.648438 851.363281 C 767.683594 850.714844 766.785156 850.058594 765.953125 849.386719 C 765.125 848.714844 764.363281 848.039062 763.675781 847.351562 C 762.984375 846.667969 762.367188 845.976562 761.828125 845.285156 C 761.285156 844.589844 760.820312 843.894531 760.433594 843.199219 C 760.042969 842.503906 759.734375 841.808594 759.503906 841.117188 C 759.269531 840.425781 759.121094 839.738281 759.046875 839.058594 C 758.976562 838.378906 758.980469 837.707031 759.070312 837.046875 C 759.15625 836.382812 759.324219 835.734375 759.570312 835.09375 C 759.816406 834.457031 760.140625 833.832031 760.546875 833.226562 C 760.949219 832.617188 761.429688 832.027344 761.984375 831.457031 C 762.539062 830.886719 763.167969 830.335938 763.871094 829.804688 C 764.574219 829.277344 765.347656 828.769531 766.191406 828.289062 C 767.039062 827.804688 767.949219 827.347656 768.921875 826.917969 C 769.898438 826.484375 770.9375 826.082031 772.039062 825.707031 C 773.136719 825.332031 774.292969 824.984375 775.503906 824.667969 C 776.714844 824.351562 777.980469 824.066406 779.292969 823.8125 C 780.605469 823.558594 781.960938 823.339844 783.363281 823.148438 C 784.761719 822.960938 786.203125 822.804688 787.675781 822.679688 C 789.152344 822.558594 790.660156 822.46875 792.195312 822.414062 C 793.730469 822.359375 795.289062 822.339844 796.871094 822.351562 C 798.453125 822.367188 800.050781 822.414062 801.664062 822.496094 C 803.273438 822.578125 804.894531 822.691406 806.523438 822.84375 C 808.148438 822.992188 809.777344 823.171875 811.402344 823.390625 Z M 811.402344 823.390625 " fill-opacity="1" fill-rule="nonzero"/><path fill="#000000" d="M 821.332031 869.050781 C 816.085938 869.050781 810.753906 868.710938 805.507812 868.03125 C 791.71875 866.171875 779.023438 862.277344 769.632812 856.945312 C 759.140625 850.9375 753.894531 843.742188 754.910156 836.460938 C 755.839844 829.265625 762.777344 823.597656 774.457031 820.550781 C 784.863281 817.839844 798.148438 817.332031 811.941406 819.195312 C 838 822.664062 864.65625 834.855469 862.539062 850.765625 C 860.847656 863.460938 842.0625 869.132812 821.246094 869.132812 Z M 795.949219 826.558594 C 788.839844 826.558594 782.238281 827.320312 776.65625 828.757812 C 768.785156 830.789062 763.792969 834.09375 763.371094 837.5625 C 762.949219 841.03125 766.839844 845.519531 773.949219 849.582031 C 782.324219 854.40625 794 857.960938 806.695312 859.652344 C 834.871094 863.378906 853.402344 856.351562 854.246094 849.664062 C 855.09375 842.980469 839.101562 831.296875 810.925781 827.660156 C 805.761719 826.980469 800.769531 826.644531 795.949219 826.644531 Z M 858.394531 850.171875 Z M 858.394531 850.171875 " fill-opacity="1" fill-rule="nonzero"/><path fill="#000000" d="M 802.632812 645 C 798.402344 642.546875 793.664062 644.238281 791.039062 648.046875 C 777.585938 667.347656 749.746094 667.6875 734.515625 650.164062 C 731.554688 646.695312 725.632812 647.117188 722.585938 650.164062 C 719.203125 653.550781 719.539062 658.714844 722.585938 662.097656 C 732.992188 674.117188 749.492188 681.226562 765.484375 679.957031 C 781.902344 678.6875 796.371094 670.054688 805.679688 656.597656 C 808.300781 652.875 806.355469 647.203125 802.632812 645 Z M 802.632812 645 " fill-opacity="1" fill-rule="nonzero"/><path fill="#000000" d="M 925.324219 667.6875 C 917.371094 675.386719 905.695312 678.859375 895.371094 676.488281 C 884.625 674.035156 876.417969 666.839844 871.847656 656.597656 C 869.984375 652.449219 863.894531 651.433594 860.253906 653.550781 C 855.941406 656.089844 855.347656 660.914062 857.210938 665.144531 C 863.386719 679.027344 876.839844 689.945312 891.816406 692.992188 C 908.234375 696.378906 925.324219 691.300781 937.253906 679.621094 C 945.039062 672.003906 933.109375 660.066406 925.324219 667.6875 Z M 925.324219 667.6875 " fill-opacity="1" fill-rule="nonzero"/></svg>